<?xml version="1.0" encoding="UTF-8"?>
<svg version="1.1" xmlns="http://www.w3.org/2000/svg" width="1024" height="1024">
<path d="M0 0 C337.92 0 675.84 0 1024 0 C1024 337.92 1024 675.84 1024 1024 C686.08 1024 348.16 1024 0 1024 C0 686.08 0 348.16 0 0 Z " fill="#201F1F" transform="translate(0,0)"/>
<path d="M0 0 C33.5410807 -0.1209091 33.5410807 -0.1209091 47.66015625 -0.14648438 C57.38627907 -0.16424438 67.11232359 -0.18505559 76.83837891 -0.22631836 C83.92367964 -0.25636322 91.00891649 -0.27560855 98.09427917 -0.28226548 C101.84064455 -0.28615239 105.58682727 -0.29518874 109.3331337 -0.31719017 C112.87078812 -0.33779476 116.40818741 -0.34378634 119.94589615 -0.33932304 C121.83975763 -0.34052143 123.73359235 -0.35653655 125.62738037 -0.3732605 C148.59028219 -0.29187405 168.20732593 8.79397292 184.8125 24.25 C202.24120905 42.65057015 208.69991146 66.14336417 208.33984375 90.91796875 C207.68271096 108.22428328 201.10470322 125.12433566 189.40625 137.9140625 C187.79858934 139.86171961 187.79858934 139.86171961 188.05859375 142.03125 C189.21981764 144.45970162 190.66361138 145.96496331 192.5625 147.875 C206.38225717 162.96012093 211.40686526 181.7297371 211.3125 201.75 C211.30686035 202.99483154 211.3012207 204.23966309 211.29541016 205.5222168 C211.1820693 214.08057388 210.73645015 221.83211092 208 230 C207.5978125 231.22203125 207.195625 232.4440625 206.78125 233.703125 C203.55108089 242.84541921 198.96144145 250.36377232 193 258 C192.31164062 258.88429688 191.62328125 259.76859375 190.9140625 260.6796875 C178.20681086 275.84335954 159.55219192 285.51826731 140 288 C130.0888793 288.65577684 120.13583457 288.48203014 110.20815921 288.40557575 C106.35788275 288.38026783 102.50758863 288.37819729 98.65724182 288.37347412 C91.39387529 288.36112945 84.13075469 288.32842548 76.8674956 288.28807616 C67.03303965 288.23464985 57.19851463 288.21334408 47.36394978 288.19006729 C31.90911627 288.15265593 16.45480131 288.07290956 1 288 C1 255.99 1 223.98 1 191 C18.82 191 36.64 191 55 191 C55 205.52 55 220.04 55 235 C68.41719742 234.93810725 68.41719742 234.93810725 81.83398438 234.83984375 C87.31339744 234.79165934 92.79261282 234.74755842 98.2722168 234.72900391 C102.69450754 234.71375951 107.11627794 234.67917779 111.5383358 234.63169098 C113.21780539 234.6169569 114.89734931 234.60896361 116.57688332 234.60811615 C127.22057722 234.59735319 136.45575075 233.92654955 145.8125 228.3125 C153.67482878 220.00089529 156.48156367 211.64561985 156.50415039 200.21142578 C156.25465927 191.77532526 152.90466899 184.45559443 146.875 178.5 C138.15455094 172.2612398 127.9996364 171.40988772 117.61230469 171.45410156 C116.33283463 171.44376389 115.05336456 171.43342621 113.73512268 171.42277527 C110.26684735 171.39519017 106.79893065 171.3915044 103.33056164 171.39249516 C99.69101849 171.38934208 96.05163132 171.3636747 92.41217041 171.34051514 C85.53833272 171.30013338 78.66458947 171.27965667 71.79065156 171.26654124 C63.95730638 171.25061037 56.12412052 171.21216955 48.29086828 171.17194796 C32.19393532 171.0897932 16.09710552 171.03851935 0 171 C0 153.18 0 135.36 0 117 C5.72984253 116.98598145 5.72984253 116.98598145 11.57543945 116.97167969 C24.21621038 116.93786679 36.85681044 116.8824932 49.49744892 116.81609726 C57.15919128 116.77637688 64.82083196 116.74394901 72.48266602 116.72900391 C79.16483036 116.71595089 85.84677035 116.6888939 92.5288083 116.64538693 C96.06323518 116.62285349 99.59738618 116.60708439 103.13189125 116.60811615 C107.08856358 116.60900768 111.0446771 116.57861796 115.0012207 116.54589844 C116.1585672 116.5509288 117.3159137 116.55595917 118.5083313 116.56114197 C128.81752033 116.42981199 137.73095061 114.18759317 145.34375 106.93359375 C152.32463556 98.78373915 152.66069851 89.21699434 152.18798828 78.95751953 C151.57678089 72.59302487 148.5625512 66.43581367 144 62 C137.14313191 56.96770625 131.02349572 54.7679141 122.43408203 54.68115234 C121.3354911 54.66608391 121.3354911 54.66608391 120.21470642 54.65071106 C117.81241587 54.62000991 115.41023609 54.60288069 113.0078125 54.5859375 C111.33485978 54.5672153 109.66191639 54.54764111 107.98898315 54.5272522 C103.59966551 54.47603602 99.21031728 54.4363542 94.82086182 54.39910889 C89.54684482 54.35194375 84.2729783 54.29039115 78.99908447 54.23126221 C70.99945075 54.14317815 62.99984399 54.07332226 55 54 C55 68.19 55 82.38 55 97 C36.85 97 18.7 97 0 97 C0 64.99 0 32.98 0 0 Z " fill="#2BF5CE" transform="translate(511,368)"/>
<path d="M0 0 C0.96373535 0.15670166 1.9274707 0.31340332 2.92041016 0.47485352 C9.61002514 1.69460072 14.41844291 3.59237716 21.0625 6.25 C21.0625 25.72 21.0625 45.19 21.0625 65.25 C15.7825 62.94 10.5025 60.63 5.0625 58.25 C-16.76239901 50.13561447 -40.98502673 51.22875178 -62.2109375 60.84765625 C-83.99181035 72.05013957 -100.8371682 89.82781234 -108.94140625 113.046875 C-109.27011719 114.10390625 -109.59882813 115.1609375 -109.9375 116.25 C-110.25589844 117.26578125 -110.57429688 118.2815625 -110.90234375 119.328125 C-115.23639721 135.86543496 -114.39508282 154.12613153 -108.9375 170.25 C-108.55207031 171.40886719 -108.16664063 172.56773437 -107.76953125 173.76171875 C-99.44714771 196.95127288 -82.02641809 214.43632402 -59.99609375 224.96875 C-40.45156722 233.15598461 -15.94403953 235.00546367 4.0625 227.25 C8.44320181 225.28904893 12.70649465 223.13758432 16.9296875 220.859375 C20.0625 219.25 20.0625 219.25 22.0625 219.25 C22.0625 238.72 22.0625 258.19 22.0625 278.25 C-7.2656275 291.28472333 -43.490109 289.23298484 -73.203125 278.38671875 C-93.77861135 270.38344927 -111.00218142 258.3932121 -126.9375 243.25 C-127.57171875 242.68023438 -128.2059375 242.11046875 -128.859375 241.5234375 C-149.46796163 222.38689277 -163.36463826 190.83581623 -166.9375 163.25 C-167.04835938 162.4146875 -167.15921875 161.579375 -167.2734375 160.71875 C-169.03513048 144.14931335 -168.72212395 127.48393648 -164.9375 111.25 C-164.67066406 110.02539062 -164.40382813 108.80078125 -164.12890625 107.5390625 C-155.1251973 70.00360028 -130.72044993 38.83582077 -98.25 18.5625 C-85.16134453 10.61897241 -70.87805279 4.65605113 -55.9375 1.25 C-55.29619141 1.10191895 -54.65488281 0.95383789 -53.99414062 0.80126953 C-36.19438891 -3.154704 -17.94048068 -2.91809757 0 0 Z " fill="#2AF5CD" transform="translate(469.9375,369.75)"/>
<path d="M0 0 C0.66 0 1.32 0 2 0 C2.51046875 1.17755859 2.51046875 1.17755859 3.03125 2.37890625 C8.05320028 13.26425062 13.78827324 18.82155554 25 23 C25 23.66 25 24.32 25 25 C24.21496094 25.3403125 23.42992187 25.680625 22.62109375 26.03125 C11.73574938 31.05320028 6.17844446 36.78827324 2 48 C1.34 48 0.68 48 0 48 C-0.3403125 47.21496094 -0.680625 46.42992187 -1.03125 45.62109375 C-6.05320028 34.73574938 -11.78827324 29.17844446 -23 25 C-23 24.34 -23 23.68 -23 23 C-22.21496094 22.6596875 -21.42992187 22.319375 -20.62109375 21.96875 C-9.73574938 16.94679972 -4.17844446 11.21172676 0 0 Z " fill="#8D8C8C" transform="translate(967,944)"/>
<path d="M0 0 C0.66 0.33 1.32 0.66 2 1 C-1.63 4.63 -5.26 8.26 -9 12 C-9.66 11.34 -10.32 10.68 -11 10 C-9.54474941 8.51780033 -8.085701 7.03932861 -6.625 5.5625 C-5.81289063 4.73878906 -5.00078125 3.91507812 -4.1640625 3.06640625 C-2 1 -2 1 0 0 Z " fill="#242F2B" transform="translate(388,443)"/>
</svg>
