<?xml version="1.0" encoding="UTF-8"?>
<svg version="1.1" xmlns="http://www.w3.org/2000/svg" width="483" height="394">
<path d="M0 0 C159.39 0 318.78 0 483 0 C483 130.02 483 260.04 483 394 C323.61 394 164.22 394 0 394 C0 263.98 0 133.96 0 0 Z " fill="#15170B" transform="translate(0,0)"/>
<path d="M0 0 C0 0.66 0 1.32 0 2 C0.94875 2.103125 1.8975 2.20625 2.875 2.3125 C6 3 6 3 8 6 C9.65071396 7.02611949 11.31970006 8.02308143 13 9 C17.84 12.52 17.84 12.52 19 16 C19.680625 16.680625 20.36125 17.36125 21.0625 18.0625 C22.0215625 19.0215625 22.0215625 19.0215625 23 20 C23 20.66 23 21.32 23 22 C23.66 22 24.32 22 25 22 C28.44419134 34.48519362 28.44419134 34.48519362 28 41 C28.53367187 41.17015625 29.06734375 41.3403125 29.6171875 41.515625 C32.08699926 42.31895478 34.54316089 43.15786439 37 44 C37.79277344 44.25523438 38.58554687 44.51046875 39.40234375 44.7734375 C49.06913727 48.18893343 59.701965 55.260785 65.29296875 64.02734375 C65.58816406 64.65769531 65.88335937 65.28804688 66.1875 65.9375 C66.49042969 66.56527344 66.79335938 67.19304687 67.10546875 67.83984375 C69.45711084 73.51869997 70.38712984 78.27773626 70.375 84.375 C70.37483887 85.13232422 70.37467773 85.88964844 70.37451172 86.66992188 C70.27464898 91.5348142 69.6905253 95.0573364 67.0234375 99.21875 C65.1298163 102.51451819 64.65245935 106.29128371 64 110 C63.34 110 62.68 110 62 110 C62 110.99 62 111.98 62 113 C61.34 113 60.68 113 60 113 C59.87625 113.7425 59.7525 114.485 59.625 115.25 C59.04513299 117.80141485 58.26291261 119.7267573 57 122 C56.34 122 55.68 122 55 122 C55 122.99 55 123.98 55 125 C55.64582031 124.95359375 56.29164063 124.9071875 56.95703125 124.859375 C63.78047382 124.59801195 70.04216176 125.40112381 76.6875 126.8125 C77.47036377 126.97782227 78.25322754 127.14314453 79.05981445 127.31347656 C94.54354667 130.76405334 94.54354667 130.76405334 100 137 C100.680625 137.45375 101.36125 137.9075 102.0625 138.375 C106.03746742 141.70884364 108.37699005 147.13097014 110 152 C110 152.99 110 153.98 110 155 C110.66 155 111.32 155 112 155 C115.12779538 177.4540107 112.73174117 197.90238824 100 217 C99.34 217 98.68 217 98 217 C97.82210937 218.09828125 97.82210937 218.09828125 97.640625 219.21875 C96.1157109 225.83910879 92.1625057 231.65262678 87 236 C86.01 236.33 85.02 236.66 84 237 C84 237.66 84 238.32 84 239 C83.34 239 82.68 239 82 239 C81.67 239.99 81.34 240.98 81 242 C80.34 242 79.68 242 79 242 C78.87625 242.763125 78.7525 243.52625 78.625 244.3125 C78 247 78 247 76 250 C75.401875 250.28875 74.80375 250.5775 74.1875 250.875 C71.75277586 251.98633811 71.75277586 251.98633811 69.4375 254.5625 C67 257 67 257 64 258 C64 258.66 64 259.32 64 260 C63.38125 260.268125 62.7625 260.53625 62.125 260.8125 C59.7004767 261.95556848 59.7004767 261.95556848 58 265 C57.01 265 56.02 265 55 265 C55 265.66 55 266.32 55 267 C54.071875 267.4021875 54.071875 267.4021875 53.125 267.8125 C50.7004767 268.95556848 50.7004767 268.95556848 49 272 C47.00844735 273.1285465 44.96833515 274.01396978 42.875 274.9375 C40.67642241 275.99740267 40.67642241 275.99740267 39 279 C37.3414613 279.75463511 35.67752097 280.50041779 33.984375 281.17382812 C30.52744427 282.61308176 27.28780453 284.46501729 24 286.25 C13.23311163 292.00717186 2.50122058 297.5082489 -9.21875 301.078125 C-12.12025809 301.98966833 -12.12025809 301.98966833 -15.2734375 303.453125 C-19.439193 305.27408399 -23.72600515 306.38667964 -28.125 307.5 C-29.37579346 307.82363525 -29.37579346 307.82363525 -30.65185547 308.15380859 C-35.460053 309.38803299 -40.28073869 310.53961126 -45.125 311.625 C-49.55791857 312.61887728 -53.81965264 313.82429058 -58.09765625 315.3515625 C-61.80048538 316.61371781 -65.02993829 317.12363418 -68.95214844 317.11352539 C-69.93286316 317.11344986 -70.91357788 317.11337433 -71.92401123 317.11329651 C-72.97518127 317.10813522 -74.02635132 317.10297394 -75.109375 317.09765625 C-76.19132141 317.0962413 -77.27326782 317.09482635 -78.38800049 317.09336853 C-81.8420285 317.08777318 -85.29599159 317.0752215 -88.75 317.0625 C-91.09244698 317.0574844 -93.43489498 317.0529216 -95.77734375 317.04882812 C-101.5182513 317.03780528 -107.25912101 317.02107174 -113 317 C-113 316.34 -113 315.68 -113 315 C-114.7634375 315.0309375 -114.7634375 315.0309375 -116.5625 315.0625 C-124.06935101 315.01000454 -129.46107568 313.43555369 -136.19921875 310.2109375 C-140.08361994 308.53148929 -143.84368738 307.749499 -148 307 C-148 306.34 -148 305.68 -148 305 C-148.99 305 -149.98 305 -151 305 C-151 304.34 -151 303.68 -151 303 C-151.70125 302.731875 -152.4025 302.46375 -153.125 302.1875 C-156.1649824 300.9318551 -159.0727774 299.49764877 -162 298 C-162 297.34 -162 296.68 -162 296 C-164.33214148 294.79371992 -166.49642139 293.8345262 -169 293 C-171.54722295 290.53196533 -173.72867561 287.72126294 -176 285 C-176.81082031 284.07574219 -177.62164062 283.15148437 -178.45703125 282.19921875 C-179.27558594 281.24660156 -180.09414062 280.29398437 -180.9375 279.3125 C-181.70964844 278.42175781 -182.48179687 277.53101563 -183.27734375 276.61328125 C-185.16989747 273.74226438 -185.39378296 272.36230066 -185 269 C-185.66 269 -186.32 269 -187 269 C-192.58292567 257.02441135 -195.18494377 247.18762873 -195.125 234 C-195.12886719 233.14921875 -195.13273437 232.2984375 -195.13671875 231.421875 C-195.12526445 223.95367016 -194.92346453 217.14413413 -191.5625 210.3125 C-190.26247279 207.63095135 -189.00867431 205.02320787 -187.96484375 202.23046875 C-187 200 -187 200 -185 199 C-183.41496656 194.12297404 -184.48629399 190.88857812 -186.16796875 186.28125 C-190.02073773 175.7177895 -190.17006778 164.63174138 -190.125 153.5 C-190.12886719 152.54480469 -190.13273437 151.58960938 -190.13671875 150.60546875 C-190.11169334 132.11169334 -190.11169334 132.11169334 -188 130 C-187.58353349 126.53954188 -187.23105853 123.08115581 -186.92578125 119.609375 C-186.40025257 114.49660445 -185.17194434 110.65416645 -183 106 C-182.55979277 104.53342724 -182.15298139 103.05537993 -181.8125 101.5625 C-181.544375 100.386875 -181.27625 99.21125 -181 98 C-180.34 98 -179.68 98 -179 98 C-178.80857422 96.92492187 -178.80857422 96.92492187 -178.61328125 95.828125 C-178.00343468 93.0158389 -177.19917089 90.44241496 -176.1875 87.75 C-175.87167969 86.87859375 -175.55585938 86.0071875 -175.23046875 85.109375 C-174 83 -174 83 -171.86328125 82.203125 C-170.94095703 82.10257813 -170.94095703 82.10257813 -170 82 C-169.9175 80.96875 -169.835 79.9375 -169.75 78.875 C-168.93536054 74.66602943 -167.67084086 72.31831743 -165 69 C-164.34 69 -163.68 69 -163 69 C-162.67 67.35 -162.34 65.7 -162 64 C-161.34 64 -160.68 64 -160 64 C-159.690625 63.38125 -159.38125 62.7625 -159.0625 62.125 C-158.375 60.75 -157.6875 59.375 -157 58 C-156.34 58 -155.68 58 -155 58 C-155 57.01 -155 56.02 -155 55 C-154.34 55 -153.68 55 -153 55 C-153 54.34 -153 53.68 -153 53 C-152.34 53 -151.68 53 -151 53 C-150.5968457 52.11006348 -150.5968457 52.11006348 -150.18554688 51.20214844 C-148.99709268 48.99459967 -147.79257611 47.53457118 -146.03125 45.765625 C-145.46019531 45.19199219 -144.88914063 44.61835937 -144.30078125 44.02734375 C-143.70652344 43.44082031 -143.11226562 42.85429688 -142.5 42.25 C-141.90574219 41.64800781 -141.31148437 41.04601562 -140.69921875 40.42578125 C-140.12816406 39.85730469 -139.55710938 39.28882813 -138.96875 38.703125 C-138.44732422 38.18395508 -137.92589844 37.66478516 -137.38867188 37.12988281 C-136 36 -136 36 -134 36 C-134 35.34 -134 34.68 -134 34 C-128.52380952 29 -128.52380952 29 -126 29 C-126 28.34 -126 27.68 -126 27 C-117.18258213 19.58108942 -107.0225682 12.68309165 -96.09375 8.921875 C-93.95027744 8.13838125 -93.95027744 8.13838125 -92.5859375 6.515625 C-90.35429816 4.38292533 -88.06436681 3.87961102 -85.125 3 C-82.02545112 2.06780485 -79.40465958 1.25979825 -76.67578125 -0.4921875 C-72.9653831 -2.5830104 -69.20928076 -3.27871821 -65.0625 -4.125 C-64.27681641 -4.29386719 -63.49113281 -4.46273438 -62.68164062 -4.63671875 C-60.45771226 -5.10941984 -58.23020715 -5.55802935 -56 -6 C-55.04609375 -6.19851562 -54.0921875 -6.39703125 -53.109375 -6.6015625 C-35.64422173 -8.83955953 -16.0254201 -7.75677582 0 0 Z " fill="#D2D1CD" transform="translate(295,32)"/>
<path d="M0 0 C1.27681641 -0.02449219 2.55363281 -0.04898438 3.86914062 -0.07421875 C11.79064869 -0.09865528 17.71025998 0.89776028 24.8125 4.375 C25.8025 4.705 26.7925 5.035 27.8125 5.375 C27.8125 6.035 27.8125 6.695 27.8125 7.375 C28.740625 7.643125 29.66875 7.91125 30.625 8.1875 C33.57031025 9.28477245 34.96267877 9.90857169 36.8125 12.375 C36.8125 13.035 36.8125 13.695 36.8125 14.375 C37.4725 14.375 38.1325 14.375 38.8125 14.375 C43.1653743 26.20167734 44.40034554 38.10545415 40.8125 50.375 C40.1525 51.365 39.4925 52.355 38.8125 53.375 C38.1525 53.375 37.4925 53.375 36.8125 53.375 C36.8125 54.035 36.8125 54.695 36.8125 55.375 C33.56257502 58.70419145 31.92730853 60.17592705 27.3125 61 C22.69769147 60.17592705 21.06242498 58.70419145 17.8125 55.375 C17.8125 54.715 17.8125 54.055 17.8125 53.375 C17.1525 53.375 16.4925 53.375 15.8125 53.375 C17.04801244 49.66846269 18.77915078 48.72584565 21.8125 46.375 C22.1425 45.715 22.4725 45.055 22.8125 44.375 C23.8025 44.375 24.7925 44.375 25.8125 44.375 C26.1425 42.395 26.4725 40.415 26.8125 38.375 C27.4725 38.375 28.1325 38.375 28.8125 38.375 C28.8125 31.775 28.8125 25.175 28.8125 18.375 C11.62625207 22.0897026 11.62625207 22.0897026 -4.1875 29.375 C-8.79689623 31.86486189 -12.89714617 33.84596462 -18.1875 34.375 C-18.1875 35.035 -18.1875 35.695 -18.1875 36.375 C-19.1775 36.375 -20.1675 36.375 -21.1875 36.375 C-21.1875 37.035 -21.1875 37.695 -21.1875 38.375 C-22.83571244 39.40513277 -24.50861559 40.39565076 -26.1875 41.375 C-28.25515931 42.91166509 -30.2911152 44.48327492 -32.3203125 46.0703125 C-34.1875 47.375 -34.1875 47.375 -37.1875 48.375 C-37.1875 49.035 -37.1875 49.695 -37.1875 50.375 C-38.5859375 51.75 -38.5859375 51.75 -40.5625 53.375 C-44.02165121 56.32145558 -47.32322137 59.37501216 -50.5625 62.5625 C-51.39523438 63.38105469 -52.22796875 64.19960937 -53.0859375 65.04296875 C-54.97256389 67.13649282 -56.0478836 68.83575763 -57.1875 71.375 C-58.1875 72.375 -59.1875 73.375 -60.1875 74.375 C-60.5175 75.035 -60.8475 75.695 -61.1875 76.375 C-62.1875 78.375 -62.1875 78.375 -63.58203125 79.70703125 C-65.46606373 81.66440806 -66.59287018 83.67150114 -67.875 86.0625 C-68.31199219 86.87074219 -68.74898437 87.67898437 -69.19921875 88.51171875 C-69.52535156 89.12660156 -69.85148437 89.74148437 -70.1875 90.375 C-70.8475 90.375 -71.5075 90.375 -72.1875 90.375 C-72.28417969 91.38046875 -72.38085938 92.3859375 -72.48046875 93.421875 C-73.06729868 97.51221323 -74.65157441 100.96182654 -76.5 104.625 C-80.22128908 112.29051253 -83.65692044 119.94180674 -85.1875 128.375 C-85.8475 128.375 -86.5075 128.375 -87.1875 128.375 C-87.1875 130.025 -87.1875 131.675 -87.1875 133.375 C-86.5275 133.375 -85.8675 133.375 -85.1875 133.375 C-84.1975 130.405 -83.2075 127.435 -82.1875 124.375 C-81.5275 124.375 -80.8675 124.375 -80.1875 124.375 C-79.6925 122.89 -79.6925 122.89 -79.1875 121.375 C-78.1975 120.88 -78.1975 120.88 -77.1875 120.375 C-76.713125 119.42625 -76.23875 118.4775 -75.75 117.5 C-74.1875 114.375 -74.1875 114.375 -72.7109375 112.9375 C-70.49583197 110.66559689 -69.57152519 108.00996862 -68.34765625 105.1171875 C-67.1875 103.375 -67.1875 103.375 -65.05859375 102.6328125 C-64.44113281 102.54773438 -63.82367188 102.46265625 -63.1875 102.375 C-63.1875 101.715 -63.1875 101.055 -63.1875 100.375 C-59.72596154 97.375 -59.72596154 97.375 -57.1875 97.375 C-56.6925 95.395 -56.6925 95.395 -56.1875 93.375 C-54.2075 92.88 -54.2075 92.88 -52.1875 92.375 C-52.1875 91.715 -52.1875 91.055 -52.1875 90.375 C-51.5275 90.045 -50.8675 89.715 -50.1875 89.375 C-49.6925 87.89 -49.6925 87.89 -49.1875 86.375 C-47.4453125 84.8046875 -47.4453125 84.8046875 -45.3125 83.25 C-44.26449219 82.47269531 -44.26449219 82.47269531 -43.1953125 81.6796875 C-41.1875 80.375 -41.1875 80.375 -38.1875 79.375 C-37.6925 77.89 -37.6925 77.89 -37.1875 76.375 C-36.1975 76.375 -35.2075 76.375 -34.1875 76.375 C-34.1875 75.715 -34.1875 75.055 -34.1875 74.375 C-32.44345212 73.36465502 -30.69200439 72.36707578 -28.9375 71.375 C-27.96296875 70.818125 -26.9884375 70.26125 -25.984375 69.6875 C-23.1875 68.375 -23.1875 68.375 -19.1875 68.375 C-19.1875 67.715 -19.1875 67.055 -19.1875 66.375 C-17.5375 65.715 -15.8875 65.055 -14.1875 64.375 C-14.1875 63.715 -14.1875 63.055 -14.1875 62.375 C-12.8675 62.375 -11.5475 62.375 -10.1875 62.375 C-10.1875 61.715 -10.1875 61.055 -10.1875 60.375 C-9.07375 60.106875 -7.96 59.83875 -6.8125 59.5625 C-2.66006537 58.52808568 1.42571438 57.31552488 5.515625 56.05859375 C7.60390156 55.43708287 9.69461134 54.88504199 11.8125 54.375 C11.83828125 55.46039063 11.8640625 56.54578125 11.890625 57.6640625 C11.94693738 59.10941349 12.004284 60.55472444 12.0625 62 C12.07667969 62.71285156 12.09085937 63.42570312 12.10546875 64.16015625 C12.34189915 69.31433896 13.56177815 72.20772124 16.8125 76.375 C17.8025 77.86 17.8025 77.86 18.8125 79.375 C21.81758947 79.70723599 24.5584105 79.83864318 27.5625 79.8125 C28.36171875 79.83248047 29.1609375 79.85246094 29.984375 79.87304688 C35.45701485 79.86854635 38.43244823 78.9005619 42.8125 75.375 C43.5859375 74.83359375 44.359375 74.2921875 45.15625 73.734375 C51.06599654 69.32347722 56.42623702 64.53378895 58.8125 57.375 C59.4725 57.375 60.1325 57.375 60.8125 57.375 C60.8125 56.715 60.8125 56.055 60.8125 55.375 C67.69848387 56.52266398 70.59370183 58.67392139 74.8125 64.375 C76.33994205 68.98753148 76.07512436 73.81698796 76.125 78.625 C76.15400391 79.54152344 76.18300781 80.45804687 76.21289062 81.40234375 C76.27261676 87.84357771 75.11048798 91.83281901 71.8125 97.375 C71.1525 97.375 70.4925 97.375 69.8125 97.375 C69.68875 98.1175 69.565 98.86 69.4375 99.625 C68.85129534 102.20430049 68.17965445 104.1232162 66.8125 106.375 C64.11186381 107.7253181 61.63143811 107.74656922 58.625 108.0625 C47.72315384 109.55421352 38.29277567 113.8773583 28.8125 119.375 C27.925625 119.725625 27.03875 120.07625 26.125 120.4375 C23.66783403 121.43364836 21.91338472 122.78122538 19.8125 124.375 C19.1525 124.375 18.4925 124.375 17.8125 124.375 C17.44125 125.24125 17.44125 125.24125 17.0625 126.125 C15.8125 128.375 15.8125 128.375 13.75 130.0625 C10.55654211 133.87404652 10.8125 138.54660439 10.8125 143.375 C11.4725 143.375 12.1325 143.375 12.8125 143.375 C12.8125 144.035 12.8125 144.695 12.8125 145.375 C16.43834571 145.29294473 20.06265078 145.18021876 23.6875 145.0625 C24.70070313 145.03994141 25.71390625 145.01738281 26.7578125 144.99414062 C35.58435242 144.68294851 43.32443466 143.23212346 50.8125 138.375 C57.25694444 135.375 57.25694444 135.375 60.8125 135.375 C60.8125 134.715 60.8125 134.055 60.8125 133.375 C62.79325027 132.01323419 64.79329663 130.67906884 66.8125 129.375 C66.8125 129.045 66.8125 128.715 66.8125 128.375 C49.28769166 128.20778317 49.28769166 128.20778317 31.8125 129.375 C31.8125 128.715 31.8125 128.055 31.8125 127.375 C35.2775 126.88 35.2775 126.88 38.8125 126.375 C38.8125 125.715 38.8125 125.055 38.8125 124.375 C47.96759193 119.34953188 58.55487374 119.07279344 68.75 119 C69.73266846 118.98630371 70.71533691 118.97260742 71.7277832 118.95849609 C77.52971329 118.99512007 81.66242197 119.66744855 86.8125 122.375 C86.8125 123.035 86.8125 123.695 86.8125 124.375 C87.93785156 124.73658203 87.93785156 124.73658203 89.0859375 125.10546875 C94.77043221 127.7522607 97.75657127 133.60735521 99.92578125 139.29296875 C104.71929983 157.21754772 101.48417968 173.68614564 94.05859375 190.36328125 C92.8125 192.375 92.8125 192.375 89.8125 193.375 C89.750625 194.2825 89.68875 195.19 89.625 196.125 C88.58904161 200.26883357 87.2109645 200.86309146 83.8125 203.375 C82.00434994 205.39753922 80.2749179 207.46950003 78.55859375 209.5703125 C76.75394197 211.43552306 75.18552283 212.36763363 72.8125 213.375 C72.8125 214.035 72.8125 214.695 72.8125 215.375 C69.48977593 219.18635996 66.30893608 221.17674236 61.8125 223.375 C61.1525 224.365 60.4925 225.355 59.8125 226.375 C56.85985927 228.41913589 55.44577194 229.375 51.8125 229.375 C51.60496094 229.96796875 51.39742187 230.5609375 51.18359375 231.171875 C49.28220602 234.2270963 47.09459068 235.07959647 43.875 236.625 C42.81410156 237.14578125 41.75320313 237.6665625 40.66015625 238.203125 C37.8125 239.375 37.8125 239.375 34.8125 239.375 C34.8125 240.035 34.8125 240.695 34.8125 241.375 C33.8225 241.375 32.8325 241.375 31.8125 241.375 C31.8125 242.035 31.8125 242.695 31.8125 243.375 C23.52308197 247.58096087 15.32710131 251.4839369 6.59765625 254.6796875 C4.69977144 255.37985929 4.69977144 255.37985929 2.5625 256.5625 C0.8125 257.375 0.8125 257.375 -3.1875 257.375 C-3.18988835 256.7844152 -3.19227671 256.19383039 -3.19473743 255.58534908 C-3.25487711 240.95631071 -3.3310092 226.32741427 -3.42321491 211.69854641 C-3.46745786 204.62302083 -3.50694502 197.54753794 -3.53393555 190.47192383 C-3.56590266 182.27152836 -3.61127558 174.07130097 -3.67578125 165.87109375 C-3.68106543 165.19805946 -3.68634961 164.52502517 -3.69179392 163.8315959 C-3.86149297 143.24180268 -4.58803476 122.7464119 -6.15534973 102.21324158 C-6.28896537 100.45997048 -6.42233143 98.70668033 -6.55541992 96.95336914 C-6.61781388 96.13471217 -6.68020784 95.3160552 -6.74449253 94.47259045 C-7.29734126 86.76587038 -7.32980434 79.09881512 -7.1875 71.375 C-16.5405625 75.69951448 -25.19101376 80.64431459 -32.1875 88.375 C-32.90197643 90.47832891 -32.90197643 90.47832891 -33.1875 92.375 C-33.8475 92.375 -34.5075 92.375 -35.1875 92.375 C-35.45380219 93.09528381 -35.72010437 93.81556763 -35.99447632 94.55767822 C-37.1875 97.375 -37.1875 97.375 -38.67471313 99.793396 C-44.43072621 109.35131566 -43.96302892 118.35751774 -43.7734375 129.140625 C-43.76222465 131.02918133 -43.75369436 132.91775531 -43.74771118 134.80633545 C-43.72497704 139.73864285 -43.66618986 144.66986306 -43.5994873 149.60174561 C-43.53772913 154.64971211 -43.51062505 159.69785705 -43.48046875 164.74609375 C-43.41642911 174.62286933 -43.31424021 184.4988437 -43.1875 194.375 C-44.60261947 194.41586988 -46.01808749 194.44476079 -47.43359375 194.46875 C-48.2217749 194.48615234 -49.00995605 194.50355469 -49.82202148 194.52148438 C-53.42894724 194.29812227 -55.98960223 193.00796907 -59.1875 191.375 C-59.0445752 190.78799316 -58.90165039 190.20098633 -58.75439453 189.59619141 C-57.25346795 182.89904388 -56.94369076 176.59524005 -57.0625 169.75 C-57.07152344 168.74582031 -57.08054688 167.74164063 -57.08984375 166.70703125 C-57.11312254 164.26275874 -57.14581513 161.81901592 -57.1875 159.375 C-57.8475 159.375 -58.5075 159.375 -59.1875 159.375 C-60.4765625 157.9140625 -60.4765625 157.9140625 -61.8125 156 C-62.25851563 155.37351563 -62.70453125 154.74703125 -63.1640625 154.1015625 C-64.1875 152.375 -64.1875 152.375 -64.1875 150.375 C-67.77502742 148.50948574 -71.46562193 146.94964072 -75.1875 145.375 C-75.1875 144.715 -75.1875 144.055 -75.1875 143.375 C-78.52081439 143.34562562 -81.85409483 143.32807666 -85.1875 143.3125 C-86.12207031 143.30412109 -87.05664062 143.29574219 -88.01953125 143.28710938 C-93.51024401 143.26791108 -98.75616481 143.5615807 -104.1875 144.375 C-104.65213869 143.06471889 -105.10874581 141.75159011 -105.5625 140.4375 C-105.81773437 139.70660156 -106.07296875 138.97570312 -106.3359375 138.22265625 C-108.90906679 129.61801748 -109.53852455 121.68057367 -109.5 112.6875 C-109.49871094 111.4490332 -109.49742187 110.21056641 -109.49609375 108.93457031 C-109.40631003 100.40287267 -108.77121589 92.55676697 -106.1875 84.375 C-105.5275 84.375 -104.8675 84.375 -104.1875 84.375 C-104.27 83.67375 -104.3525 82.9725 -104.4375 82.25 C-104.10515135 78.42799049 -102.35637918 76.50073764 -100.1875 73.375 C-99.50954472 71.37879834 -98.84016469 69.37961299 -98.1875 67.375 C-97.1975 66.88 -97.1975 66.88 -96.1875 66.375 C-95.48138482 64.68909778 -94.77751723 63.00219339 -94.08886719 61.30908203 C-92.60917409 58.13407426 -90.49658821 55.53113232 -88.3125 52.8125 C-87.89097656 52.27431641 -87.46945313 51.73613281 -87.03515625 51.18164062 C-85.76560999 49.56850156 -84.47988886 47.96987851 -83.1875 46.375 C-82.54699707 45.57678833 -82.54699707 45.57678833 -81.89355469 44.76245117 C-79.5098155 41.83566811 -77.08099825 39.23347132 -74.1875 36.8125 C-71.80590674 34.78971551 -69.53164135 32.76088988 -67.375 30.5 C-65.1875 28.375 -65.1875 28.375 -62.1875 27.375 C-61.3625 26.55 -60.5375 25.725 -59.6875 24.875 C-57.1875 22.375 -57.1875 22.375 -54.1875 21.375 C-54.1875 20.715 -54.1875 20.055 -54.1875 19.375 C-53.23875 18.83875 -52.29 18.3025 -51.3125 17.75 C-49.14460522 16.51804373 -47.00351739 15.26118025 -44.8828125 13.94921875 C-36.73057772 8.90941865 -28.48185179 4.79153146 -19.1875 2.375 C-18.43170654 2.0351709 -17.67591309 1.6953418 -16.8972168 1.34521484 C-11.51689802 -0.58120977 -5.65462208 0.00562369 0 0 Z " fill="#18190E" transform="translate(253.1875,53.625)"/>
<path d="M0 0 C1.27681641 -0.02449219 2.55363281 -0.04898438 3.86914062 -0.07421875 C11.79064869 -0.09865528 17.71025998 0.89776028 24.8125 4.375 C25.8025 4.705 26.7925 5.035 27.8125 5.375 C27.8125 6.035 27.8125 6.695 27.8125 7.375 C28.740625 7.643125 29.66875 7.91125 30.625 8.1875 C33.57031025 9.28477245 34.96267877 9.90857169 36.8125 12.375 C36.8125 13.035 36.8125 13.695 36.8125 14.375 C37.4725 14.375 38.1325 14.375 38.8125 14.375 C43.1653743 26.20167734 44.40034554 38.10545415 40.8125 50.375 C40.1525 51.365 39.4925 52.355 38.8125 53.375 C38.1525 53.375 37.4925 53.375 36.8125 53.375 C36.8125 54.035 36.8125 54.695 36.8125 55.375 C33.56257502 58.70419145 31.92730853 60.17592705 27.3125 61 C22.69769147 60.17592705 21.06242498 58.70419145 17.8125 55.375 C17.8125 54.715 17.8125 54.055 17.8125 53.375 C17.1525 53.375 16.4925 53.375 15.8125 53.375 C17.04801244 49.66846269 18.77915078 48.72584565 21.8125 46.375 C22.1425 45.715 22.4725 45.055 22.8125 44.375 C23.8025 44.375 24.7925 44.375 25.8125 44.375 C26.1425 42.395 26.4725 40.415 26.8125 38.375 C27.4725 38.375 28.1325 38.375 28.8125 38.375 C28.8125 31.775 28.8125 25.175 28.8125 18.375 C11.62625207 22.0897026 11.62625207 22.0897026 -4.1875 29.375 C-8.79689623 31.86486189 -12.89714617 33.84596462 -18.1875 34.375 C-18.1875 35.035 -18.1875 35.695 -18.1875 36.375 C-19.1775 36.375 -20.1675 36.375 -21.1875 36.375 C-21.1875 37.035 -21.1875 37.695 -21.1875 38.375 C-22.83571244 39.40513277 -24.50861559 40.39565076 -26.1875 41.375 C-28.25515931 42.91166509 -30.2911152 44.48327492 -32.3203125 46.0703125 C-34.1875 47.375 -34.1875 47.375 -37.1875 48.375 C-37.1875 49.035 -37.1875 49.695 -37.1875 50.375 C-38.5859375 51.75 -38.5859375 51.75 -40.5625 53.375 C-44.02165121 56.32145558 -47.32322137 59.37501216 -50.5625 62.5625 C-51.39523438 63.38105469 -52.22796875 64.19960937 -53.0859375 65.04296875 C-54.97256389 67.13649282 -56.0478836 68.83575763 -57.1875 71.375 C-58.1875 72.375 -59.1875 73.375 -60.1875 74.375 C-60.5175 75.035 -60.8475 75.695 -61.1875 76.375 C-62.1875 78.375 -62.1875 78.375 -63.58203125 79.70703125 C-65.46606373 81.66440806 -66.59287018 83.67150114 -67.875 86.0625 C-68.31199219 86.87074219 -68.74898437 87.67898437 -69.19921875 88.51171875 C-69.52535156 89.12660156 -69.85148437 89.74148437 -70.1875 90.375 C-70.8475 90.375 -71.5075 90.375 -72.1875 90.375 C-72.28417969 91.38046875 -72.38085938 92.3859375 -72.48046875 93.421875 C-73.06729868 97.51221323 -74.65157441 100.96182654 -76.5 104.625 C-80.22128908 112.29051253 -83.65692044 119.94180674 -85.1875 128.375 C-85.8475 128.375 -86.5075 128.375 -87.1875 128.375 C-87.1875 130.025 -87.1875 131.675 -87.1875 133.375 C-86.5275 133.375 -85.8675 133.375 -85.1875 133.375 C-84.1975 130.405 -83.2075 127.435 -82.1875 124.375 C-81.5275 124.375 -80.8675 124.375 -80.1875 124.375 C-79.6925 122.89 -79.6925 122.89 -79.1875 121.375 C-78.1975 120.88 -78.1975 120.88 -77.1875 120.375 C-76.713125 119.42625 -76.23875 118.4775 -75.75 117.5 C-74.1875 114.375 -74.1875 114.375 -72.7109375 112.9375 C-70.49583197 110.66559689 -69.57152519 108.00996862 -68.34765625 105.1171875 C-67.1875 103.375 -67.1875 103.375 -65.05859375 102.6328125 C-64.44113281 102.54773438 -63.82367188 102.46265625 -63.1875 102.375 C-63.1875 101.715 -63.1875 101.055 -63.1875 100.375 C-59.72596154 97.375 -59.72596154 97.375 -57.1875 97.375 C-57.11660156 96.76140625 -57.04570312 96.1478125 -56.97265625 95.515625 C-56.1875 93.375 -56.1875 93.375 -54.12109375 92.109375 C-53.29738281 91.78453125 -52.47367188 91.4596875 -51.625 91.125 C-50.79871094 90.78984375 -49.97242188 90.4546875 -49.12109375 90.109375 C-48.48300781 89.86703125 -47.84492188 89.6246875 -47.1875 89.375 C-45.91113774 91.92772452 -46.03498965 93.77338253 -45.99804688 96.6315918 C-45.98132935 97.730009 -45.96461182 98.82842621 -45.9473877 99.96012878 C-45.93381226 101.15277847 -45.92023682 102.34542816 -45.90625 103.57421875 C-45.87863586 105.40953911 -45.87863586 105.40953911 -45.85046387 107.28193665 C-45.79156626 111.20874099 -45.73885098 115.13559015 -45.6875 119.0625 C-45.61970158 124.21232852 -45.54593031 129.36202332 -45.46875 134.51171875 C-45.45517456 135.69424728 -45.44159912 136.87677582 -45.4276123 138.09513855 C-45.34456578 143.6299642 -45.00569896 148.89498881 -44.1875 154.375 C-44.05767039 157.44749188 -44.0704182 160.51509141 -44.08984375 163.58984375 C-44.0912587 164.44558487 -44.09267365 165.30132599 -44.09413147 166.18299866 C-44.0996901 168.89286931 -44.11223475 171.60265468 -44.125 174.3125 C-44.13002035 176.15950401 -44.13458232 178.00650932 -44.13867188 179.85351562 C-44.14964595 184.36070951 -44.1668817 188.86784034 -44.1875 193.375 C-45.61339467 193.2210993 -47.03914891 193.06589722 -48.46484375 192.91015625 C-49.25882568 192.82386963 -50.05280762 192.73758301 -50.87084961 192.64868164 C-53.66113618 192.31904614 -56.4223243 191.87131359 -59.1875 191.375 C-59.0445752 190.78799316 -58.90165039 190.20098633 -58.75439453 189.59619141 C-57.25346795 182.89904388 -56.94369076 176.59524005 -57.0625 169.75 C-57.07152344 168.74582031 -57.08054688 167.74164063 -57.08984375 166.70703125 C-57.11312254 164.26275874 -57.14581513 161.81901592 -57.1875 159.375 C-57.8475 159.375 -58.5075 159.375 -59.1875 159.375 C-60.4765625 157.9140625 -60.4765625 157.9140625 -61.8125 156 C-62.25851563 155.37351563 -62.70453125 154.74703125 -63.1640625 154.1015625 C-64.1875 152.375 -64.1875 152.375 -64.1875 150.375 C-67.77502742 148.50948574 -71.46562193 146.94964072 -75.1875 145.375 C-75.1875 144.715 -75.1875 144.055 -75.1875 143.375 C-78.52081439 143.34562562 -81.85409483 143.32807666 -85.1875 143.3125 C-86.12207031 143.30412109 -87.05664062 143.29574219 -88.01953125 143.28710938 C-93.51024401 143.26791108 -98.75616481 143.5615807 -104.1875 144.375 C-104.65213869 143.06471889 -105.10874581 141.75159011 -105.5625 140.4375 C-105.81773437 139.70660156 -106.07296875 138.97570312 -106.3359375 138.22265625 C-108.90906679 129.61801748 -109.53852455 121.68057367 -109.5 112.6875 C-109.49871094 111.4490332 -109.49742187 110.21056641 -109.49609375 108.93457031 C-109.40631003 100.40287267 -108.77121589 92.55676697 -106.1875 84.375 C-105.5275 84.375 -104.8675 84.375 -104.1875 84.375 C-104.27 83.67375 -104.3525 82.9725 -104.4375 82.25 C-104.10515135 78.42799049 -102.35637918 76.50073764 -100.1875 73.375 C-99.50954472 71.37879834 -98.84016469 69.37961299 -98.1875 67.375 C-97.1975 66.88 -97.1975 66.88 -96.1875 66.375 C-95.48138482 64.68909778 -94.77751723 63.00219339 -94.08886719 61.30908203 C-92.60917409 58.13407426 -90.49658821 55.53113232 -88.3125 52.8125 C-87.89097656 52.27431641 -87.46945313 51.73613281 -87.03515625 51.18164062 C-85.76560999 49.56850156 -84.47988886 47.96987851 -83.1875 46.375 C-82.54699707 45.57678833 -82.54699707 45.57678833 -81.89355469 44.76245117 C-79.5098155 41.83566811 -77.08099825 39.23347132 -74.1875 36.8125 C-71.80590674 34.78971551 -69.53164135 32.76088988 -67.375 30.5 C-65.1875 28.375 -65.1875 28.375 -62.1875 27.375 C-61.3625 26.55 -60.5375 25.725 -59.6875 24.875 C-57.1875 22.375 -57.1875 22.375 -54.1875 21.375 C-54.1875 20.715 -54.1875 20.055 -54.1875 19.375 C-53.23875 18.83875 -52.29 18.3025 -51.3125 17.75 C-49.14460522 16.51804373 -47.00351739 15.26118025 -44.8828125 13.94921875 C-36.73057772 8.90941865 -28.48185179 4.79153146 -19.1875 2.375 C-18.43170654 2.0351709 -17.67591309 1.6953418 -16.8972168 1.34521484 C-11.51689802 -0.58120977 -5.65462208 0.00562369 0 0 Z " fill="#191A11" transform="translate(253.1875,53.625)"/>
<path d="M0 0 C3 1.9375 3 1.9375 5 4 C5 4.66 5 5.32 5 6 C5.66 6 6.32 6 7 6 C7 7.65 7 9.3 7 11 C4.41496565 9.85109585 2.65507437 8.69819007 0.5 6.8125 C-1.77208623 4.79211565 -1.77208623 4.79211565 -4.125 5 C-6.56088548 6.29913892 -7.58383006 7.63971677 -9 10 C-12.23381097 20.70094917 -10.95466743 34.15035993 -6 44 C-5.67 44.66 -5.34 45.32 -5 46 C4.11332188 49.8731618 14.83684909 49.25903979 24.5625 49.5625 C26.50479492 49.62727539 26.50479492 49.62727539 28.48632812 49.69335938 C31.65746384 49.79867385 34.82866793 49.90080617 38 50 C38.02527062 56.39037231 38.04283317 62.78073183 38.05493164 69.17114258 C38.05997308 71.34692873 38.06680607 73.52271147 38.07543945 75.69848633 C38.08751338 78.81853067 38.09323005 81.93853038 38.09765625 85.05859375 C38.10281754 86.03775253 38.10797882 87.01691132 38.11329651 88.02574158 C38.11337204 88.92659988 38.11344757 89.82745819 38.11352539 90.75561523 C38.115746 91.55281479 38.11796661 92.35001434 38.12025452 93.17137146 C38 95 38 95 37 96 C19.9439912 97.26506173 4.77358217 96.10125618 -10 87 C-11.71050304 85.37835426 -13.38363534 83.71549435 -15 82 C-16.08942797 81.10671633 -17.19067327 80.22724046 -18.3125 79.375 C-19.199375 78.59125 -20.08625 77.8075 -21 77 C-21 76.01 -21 75.02 -21 74 C-21.66 74 -22.32 74 -23 74 C-28.79243603 65.99217332 -33.50640991 58.05004275 -34 48 C-34.06703125 46.83855469 -34.1340625 45.67710937 -34.203125 44.48046875 C-34.58358556 31.28664008 -33.04530898 18.23722156 -23.9375 8.125 C-23.24527344 7.34382812 -22.55304688 6.56265625 -21.83984375 5.7578125 C-20 4 -20 4 -18 4 C-18 3.34 -18 2.68 -18 2 C-11.58728185 -0.32592441 -6.70358007 -1.70430002 0 0 Z " fill="#191A10" transform="translate(172,226)"/>
<path d="M0 0 C1.87457064 6.59075233 1.13537936 13.32964627 0 20 C-0.66 20 -1.32 20 -2 20 C-2.33 21.98 -2.66 23.96 -3 26 C-3.99 26 -4.98 26 -6 26 C-6.226875 26.5775 -6.45375 27.155 -6.6875 27.75 C-8.42849634 30.73456515 -10.06786833 32.15148221 -13 34 C-15.70203116 34.60657842 -18.22143762 34.81162289 -21 35 C-21 35.99 -21 36.98 -21 38 C-21.69867188 38.20496094 -22.39734375 38.40992188 -23.1171875 38.62109375 C-24.02726562 38.89050781 -24.93734375 39.15992188 -25.875 39.4375 C-26.77992188 39.70433594 -27.68484375 39.97117188 -28.6171875 40.24609375 C-30.98275381 40.92613826 -30.98275381 40.92613826 -33 42 C-34.99960012 42.039992 -37.00047242 42.04346799 -39 42 C-39 42.66 -39 43.32 -39 44 C-40.32 44 -41.64 44 -43 44 C-43 44.66 -43 45.32 -43 46 C-44.65 46.66 -46.3 47.32 -48 48 C-48 48.66 -48 49.32 -48 50 C-49.216875 50.433125 -50.43375 50.86625 -51.6875 51.3125 C-55.04600891 52.56079535 -57.94773594 54.11477808 -61 56 C-61.66 56 -62.32 56 -63 56 C-63 56.66 -63 57.32 -63 58 C-63.99 58 -64.98 58 -66 58 C-66.0928125 58.8971875 -66.0928125 58.8971875 -66.1875 59.8125 C-67.3361092 62.90490938 -69.14187109 63.47123338 -72 65 C-72.721875 65.556875 -73.44375 66.11375 -74.1875 66.6875 C-76 68 -76 68 -78 68 C-78.495 69.98 -78.495 69.98 -79 72 C-79.66 72 -80.32 72 -81 72 C-81 72.66 -81 73.32 -81 74 C-82.98 74.495 -82.98 74.495 -85 75 C-85.0825 75.598125 -85.165 76.19625 -85.25 76.8125 C-86.21576779 79.62932273 -87.48868567 80.47799132 -90 82 C-90.66 82 -91.32 82 -92 82 C-92 82.66 -92 83.32 -92 84 C-93.98 84.495 -93.98 84.495 -96 85 C-96.0825 85.515625 -96.165 86.03125 -96.25 86.5625 C-97.74985301 91.43702227 -100.32376243 95.49086414 -104 99 C-104.495 99.99 -104.495 99.99 -105 101 C-106.0742607 103.14852141 -107.15983558 104.46652965 -109 106 C-109.66 106 -110.32 106 -111 106 C-111.12375 106.928125 -111.2475 107.85625 -111.375 108.8125 C-112 112 -112 112 -114 115 C-114.66 115 -115.32 115 -116 115 C-116 113.35 -116 111.7 -116 110 C-115.34 110 -114.68 110 -114 110 C-113.9175 109.0925 -113.835 108.185 -113.75 107.25 C-112.40418713 98.08741102 -108.56391428 89.85483274 -104.328125 81.71484375 C-102.75577647 78.50077837 -101.79061494 75.47870572 -101 72 C-100.34 72 -99.68 72 -99 72 C-98.88527344 71.42636719 -98.77054688 70.85273438 -98.65234375 70.26171875 C-97.94035768 67.79321615 -96.93309672 65.98023902 -95.5625 63.8125 C-95.13066406 63.11769531 -94.69882813 62.42289063 -94.25390625 61.70703125 C-93 60 -93 60 -91 59 C-90.505 58.01 -90.01 57.02 -89.5 56 C-88 53 -88 53 -86 52 C-85.61972656 51.31550781 -85.23945313 50.63101563 -84.84765625 49.92578125 C-82.24198861 45.79968175 -78.89608343 42.60681853 -75.4375 39.1875 C-74.40979492 38.14819336 -74.40979492 38.14819336 -73.36132812 37.08789062 C-72.70455078 36.43369141 -72.04777344 35.77949219 -71.37109375 35.10546875 C-70.77224365 34.50887451 -70.17339355 33.91228027 -69.55639648 33.29760742 C-68 32 -68 32 -66 32 C-66 31.34 -66 30.68 -66 30 C-62.51803492 26.84193865 -59.06367989 24.37047993 -55 22 C-54.34 21.34 -53.68 20.68 -53 20 C-52.01 20 -51.02 20 -50 20 C-50 19.34 -50 18.68 -50 18 C-49.01 18 -48.02 18 -47 18 C-47 17.34 -47 16.68 -47 16 C-46.154375 15.69707031 -45.30875 15.39414063 -44.4375 15.08203125 C-38.47806816 12.88110472 -33.09424096 10.63673674 -27.8046875 7.125 C-20.05721667 2.2954078 -9.02272904 -0.3515349 0 0 Z " fill="#E1E1DD" transform="translate(282,72)"/>
<path d="M0 0 C3 1.9375 3 1.9375 5 4 C5 4.66 5 5.32 5 6 C5.66 6 6.32 6 7 6 C7 7.65 7 9.3 7 11 C4.41496565 9.85109585 2.65507437 8.69819007 0.5 6.8125 C-1.77208623 4.79211565 -1.77208623 4.79211565 -4.125 5 C-6.56088548 6.29913892 -7.58383006 7.63971677 -9 10 C-12.27596918 20.84045421 -10.80215819 33.97139655 -6 44 C-5.67 44.99 -5.34 45.98 -5 47 C-13.92283039 45.43097654 -24.59278248 41.58569155 -31 35 C-31.66 34.67 -32.32 34.34 -33 34 C-32.46589137 41.35251669 -31.86859084 48.67902003 -31 56 C-30.34 56 -29.68 56 -29 56 C-28.67 58.64 -28.34 61.28 -28 64 C-32.78915852 60.08281712 -33.10681892 53.80263901 -34 48 C-35.01086653 35.23612532 -34.11865197 20.92395721 -26.02734375 10.4453125 C-25.33769531 9.67960938 -24.64804688 8.91390625 -23.9375 8.125 C-23.24527344 7.34382812 -22.55304688 6.56265625 -21.83984375 5.7578125 C-20 4 -20 4 -18 4 C-18 3.34 -18 2.68 -18 2 C-11.58728185 -0.32592441 -6.70358007 -1.70430002 0 0 Z " fill="#5E5D57" transform="translate(172,226)"/>
<path d="M0 0 C1.32 0.33 2.64 0.66 4 1 C3.34 1 2.68 1 2 1 C2 4.3 2 7.6 2 11 C0.98292969 11.51046875 0.98292969 11.51046875 -0.0546875 12.03125 C-8.10832696 16.22538911 -15.8647317 21.19991935 -22 28 C-22.71447643 30.10332891 -22.71447643 30.10332891 -23 32 C-23.66 32 -24.32 32 -25 32 C-25.26630219 32.72028381 -25.53260437 33.44056763 -25.80697632 34.18267822 C-27 37 -27 37 -28.48721313 39.418396 C-34.24322621 48.97631566 -33.77552892 57.98251774 -33.5859375 68.765625 C-33.57472465 70.65418133 -33.56619436 72.54275531 -33.56021118 74.43133545 C-33.53747704 79.36364285 -33.47868986 84.29486306 -33.4119873 89.22674561 C-33.35022913 94.27471211 -33.32312505 99.32285705 -33.29296875 104.37109375 C-33.22892911 114.24786933 -33.12674021 124.1238437 -33 134 C-34.43609281 134.02712808 -35.87233437 134.04645401 -37.30859375 134.0625 C-38.10837646 134.07410156 -38.90815918 134.08570313 -39.73217773 134.09765625 C-42.47542688 133.97952732 -44.56835919 133.25504042 -47 132 C-43.72814447 130.92689142 -41.57052408 131.10736898 -38.25 131.9375 C-37.05117187 132.22947266 -37.05117187 132.22947266 -35.828125 132.52734375 C-34.92320312 132.76130859 -34.92320312 132.76130859 -34 133 C-34.11876527 127.57383995 -34.24304579 122.14784384 -34.37231445 116.72192383 C-34.41547728 114.87820825 -34.45716451 113.03445748 -34.49731445 111.19067383 C-34.55547166 108.5319562 -34.61903219 105.87341265 -34.68359375 103.21484375 C-34.70866249 101.98942116 -34.70866249 101.98942116 -34.73423767 100.73924255 C-34.82110363 97.34094354 -34.98499489 94.09806076 -35.5 90.73242188 C-36.24284623 85.18719081 -36.23783179 79.65560964 -36.31640625 74.06640625 C-36.33718735 72.83333237 -36.35796844 71.60025848 -36.37937927 70.32981873 C-36.44454023 66.40743352 -36.50360385 62.48498378 -36.5625 58.5625 C-36.60522252 55.89646899 -36.64933232 53.23046317 -36.69335938 50.56445312 C-36.80018722 44.04303612 -36.90201463 37.52155553 -37 31 C-37.66 31 -38.32 31 -39 31 C-39.99 30.67 -40.98 30.34 -42 30 C-41.34 29.67 -40.68 29.34 -40 29 C-39.67 28.01 -39.34 27.02 -39 26 C-37.2578125 24.4296875 -37.2578125 24.4296875 -35.125 22.875 C-34.07699219 22.09769531 -34.07699219 22.09769531 -33.0078125 21.3046875 C-31 20 -31 20 -28 19 C-27.67 18.01 -27.34 17.02 -27 16 C-26.01 16 -25.02 16 -24 16 C-24 15.34 -24 14.68 -24 14 C-22.25595212 12.98965502 -20.50450439 11.99207578 -18.75 11 C-17.77546875 10.443125 -16.8009375 9.88625 -15.796875 9.3125 C-13 8 -13 8 -9 8 C-9 7.34 -9 6.68 -9 6 C-7.35 5.34 -5.7 4.68 -4 4 C-4 3.34 -4 2.68 -4 2 C-2.68 2 -1.36 2 0 2 C0 1.34 0 0.68 0 0 Z " fill="#65645F" transform="translate(243,114)"/>
<path d="M0 0 C0.66 0.33 1.32 0.66 2 1 C2 1.66 2 2.32 2 3 C2.66 3 3.32 3 4 3 C8.3528743 14.82667734 9.58784554 26.73045415 6 39 C5.34 39.99 4.68 40.98 4 42 C3.34 42 2.68 42 2 42 C2 42.66 2 43.32 2 44 C-1.24992498 47.32919145 -2.88519147 48.80092705 -7.5 49.625 C-12.11480853 48.80092705 -13.75007502 47.32919145 -17 44 C-17 43.34 -17 42.68 -17 42 C-17.66 42 -18.32 42 -19 42 C-17.76448756 38.29346269 -16.03334922 37.35084565 -13 35 C-12.67 34.34 -12.34 33.68 -12 33 C-11.01 33 -10.02 33 -9 33 C-8.67 31.02 -8.34 29.04 -8 27 C-7.34 27 -6.68 27 -6 27 C-6 20.4 -6 13.8 -6 7 C-7.32 6.67 -8.64 6.34 -10 6 C-4.555 5.505 -4.555 5.505 1 5 C0.67 3.35 0.34 1.7 0 0 Z " fill="#5B5A55" transform="translate(288,65)"/>
<path d="M0 0 C1.3303125 0.01353516 1.3303125 0.01353516 2.6875 0.02734375 C3.8321875 0.04474609 3.8321875 0.04474609 5 0.0625 C6.49874373 0.0625 7.99749865 0.04845072 9.49609375 0.02734375 C10.46675781 0.01832031 11.43742187 0.00929687 12.4375 0 C13.88962891 -0.01740234 13.88962891 -0.01740234 15.37109375 -0.03515625 C18 0.0625 18 0.0625 21 1.0625 C21.22119939 3.68700086 21.42746669 6.31120486 21.625 8.9375 C21.68945312 9.68386719 21.75390625 10.43023437 21.8203125 11.19921875 C21.96087365 13.1495047 21.98759849 15.10719467 22 17.0625 C20 19.0625 20 19.0625 17.1796875 19.2578125 C16.08914063 19.23460938 14.99859375 19.21140625 13.875 19.1875 C12.77929688 19.16945313 11.68359375 19.15140625 10.5546875 19.1328125 C9.71164062 19.10960938 8.86859375 19.08640625 8 19.0625 C7.67 18.4025 7.34 17.7425 7 17.0625 C6.67 17.7225 6.34 18.3825 6 19.0625 C1.94443928 19.40684006 -1.95417505 19.57360821 -6 19.0625 C-9.43280502 15.86374987 -9.91973401 14.00963865 -10.3125 9.375 C-10 6.0625 -10 6.0625 -9 3.0625 C-8.34 3.0625 -7.68 3.0625 -7 3.0625 C-7 2.4025 -7 1.7425 -7 1.0625 C-4.50246371 -0.18626815 -2.78331496 -0.03640964 0 0 Z " fill="#20211A" transform="translate(347,38.9375)"/>
<path d="M0 0 C0.66 0 1.32 0 2 0 C0.55022173 4.07283071 -1.44260171 7.37151231 -3.875 10.9375 C-4.55304688 11.93652344 -5.23109375 12.93554688 -5.9296875 13.96484375 C-6.61289062 14.96644531 -7.29609375 15.96804687 -8 17 C-8.70382812 18.11503906 -9.40765625 19.23007813 -10.1328125 20.37890625 C-10.74898438 21.24386719 -11.36515625 22.10882813 -12 23 C-12.66 23 -13.32 23 -14 23 C-14.2165625 23.54140625 -14.433125 24.0828125 -14.65625 24.640625 C-16.46499997 27.81645344 -18.91723799 30.20728081 -21.5 32.75 C-21.99886719 33.25660156 -22.49773437 33.76320312 -23.01171875 34.28515625 C-26.74658861 38 -26.74658861 38 -29 38 C-29 38.66 -29 39.32 -29 40 C-31.86089669 40.23840806 -33.57541326 40.23102514 -36.125 38.84375 C-38.63363766 36.37692297 -38.58689768 34.77842439 -38.75 31.3125 C-38.80671875 30.31863281 -38.8634375 29.32476562 -38.921875 28.30078125 C-38.94765625 27.54152344 -38.9734375 26.78226563 -39 26 C-37.53240234 25.22076172 -37.53240234 25.22076172 -36.03515625 24.42578125 C-33.32008541 22.98310725 -30.60838638 21.53430142 -27.8984375 20.08203125 C-25.723707 18.91673729 -23.5453781 17.76598371 -21.3515625 16.63671875 C-14.13718357 12.84721646 -7.66397091 7.86387577 -2 2 C-1.34 1.34 -0.68 0.68 0 0 Z " fill="#C9C8C1" transform="translate(295,212)"/>
<path d="M0 0 C0.33 0 0.66 0 1 0 C1.08564209 1.16047852 1.17128418 2.32095703 1.25952148 3.51660156 C1.57844565 7.82562388 1.9019385 12.13429317 2.22680664 16.44287109 C2.36672438 18.30703581 2.50540605 20.17129374 2.64282227 22.03564453 C2.84065385 24.71672675 3.04294079 27.3974414 3.24609375 30.078125 C3.3065538 30.91055725 3.36701385 31.7429895 3.42930603 32.60064697 C3.48929276 33.38115417 3.54927948 34.16166138 3.61108398 34.96582031 C3.66215805 35.64976868 3.71323212 36.33371704 3.76585388 37.03839111 C3.9467645 38.9950434 3.9467645 38.9950434 4.51721191 40.81066895 C5.2017573 43.91492218 5.11908032 46.88605431 5.11352539 50.06347656 C5.11367142 50.76631775 5.11381744 51.46915894 5.1139679 52.19329834 C5.11327299 54.50910563 5.10550038 56.82483181 5.09765625 59.140625 C5.09579057 60.74916541 5.09436737 62.35770638 5.09336853 63.96624756 C5.08955516 68.19455542 5.07973495 72.42282879 5.06866455 76.65112305 C5.05842506 80.96793145 5.05386547 85.28474544 5.04882812 89.6015625 C5.03811162 98.06772414 5.02104937 106.53385778 5 115 C7.475 114.505 7.475 114.505 10 114 C11.60725635 117.21451269 11.05748185 120.43612536 11 124 C13.97 124.99 16.94 125.98 20 127 C20 126.34 20 125.68 20 125 C20.66 125.33 21.32 125.66 22 126 C20.60878255 128.7824349 18.69835788 129.55210065 16 131 C15.34 131 14.68 131 14 131 C14 131.66 14 132.32 14 133 C11.03 133.99 8.06 134.98 5 136 C5 152.5 5 169 5 186 C4.67 186 4.34 186 4 186 C3.99761165 185.4094152 3.99522329 184.81883039 3.99276257 184.21034908 C3.93262289 169.58131071 3.8564908 154.95241427 3.76428509 140.32354641 C3.72004214 133.24802083 3.68055498 126.17253794 3.65356445 119.09692383 C3.62159734 110.89652836 3.57622442 102.69630097 3.51171875 94.49609375 C3.50643457 93.82305946 3.50115039 93.15002517 3.49570608 92.4565959 C3.32600703 71.86680268 2.59946524 51.3714119 1.03215027 30.83824158 C0.89853463 29.08497048 0.76516857 27.33168033 0.63208008 25.57836914 C0.56968612 24.75971217 0.50729216 23.9410552 0.44300747 23.09759045 C-0.10984126 15.39087038 -0.14230434 7.72381512 0 0 Z " fill="#6C6A64" transform="translate(246,125)"/>
<path d="M0 0 C0.98266846 -0.01369629 1.96533691 -0.02739258 2.9777832 -0.04150391 C8.77971329 -0.00487993 12.91242197 0.66744855 18.0625 3.375 C18.0625 4.035 18.0625 4.695 18.0625 5.375 C18.84625 5.6225 19.63 5.87 20.4375 6.125 C23.38567108 7.52889099 23.9649777 8.38175737 25.0625 11.375 C23.0825 10.385 21.1025 9.395 19.0625 8.375 C19.0625 7.715 19.0625 7.055 19.0625 6.375 C18.0725 6.375 17.0825 6.375 16.0625 6.375 C16.0625 5.715 16.0625 5.055 16.0625 4.375 C9.37598125 4.53844824 5.73205366 5.47196866 1.0625 10.375 C0.7325 11.365 0.4025 12.355 0.0625 13.375 C-5.15972222 16.375 -5.15972222 16.375 -7.9375 16.375 C-7.9375 15.715 -7.9375 15.055 -7.9375 14.375 C-5.95674973 13.01323419 -3.95670337 11.67906884 -1.9375 10.375 C-1.9375 10.045 -1.9375 9.715 -1.9375 9.375 C-19.46230834 9.20778317 -19.46230834 9.20778317 -36.9375 10.375 C-36.9375 9.715 -36.9375 9.055 -36.9375 8.375 C-33.4725 7.88 -33.4725 7.88 -29.9375 7.375 C-29.9375 6.715 -29.9375 6.055 -29.9375 5.375 C-20.78240807 0.34953188 -10.19512626 0.07279344 0 0 Z " fill="#65645F" transform="translate(321.9375,172.625)"/>
<path d="M0 0 C3.96 0 7.92 0 12 0 C12.22119939 2.62450086 12.42746669 5.24870486 12.625 7.875 C12.68945312 8.62136719 12.75390625 9.36773437 12.8203125 10.13671875 C12.96087365 12.0870047 12.98759849 14.04469467 13 16 C11 18 11 18 8.3984375 18.1953125 C5.59895833 18.13020833 2.79947917 18.06510417 0 18 C0 12.06 0 6.12 0 0 Z " fill="#9A9B94" transform="translate(356,40)"/>
<path d="M0 0 C3.3 0.33 6.6 0.66 10 1 C10 1.66 10 2.32 10 3 C14.95 3 19.9 3 25 3 C25 3.66 25 4.32 25 5 C37.87 5 50.74 5 64 5 C64 4.34 64 3.68 64 3 C69.94 3 75.88 3 82 3 C74.12633055 6.93683473 67.14780199 7.28193588 58.5 7.1953125 C57.42371338 7.1924826 56.34742676 7.18965271 55.23852539 7.18673706 C51.82556701 7.17560731 48.4128781 7.15051595 45 7.125 C42.67578506 7.11496089 40.35156598 7.10583667 38.02734375 7.09765625 C32.35147169 7.0756916 26.67575511 7.04228625 21 7 C21 6.34 21 5.68 21 5 C19.2365625 5.0309375 19.2365625 5.0309375 17.4375 5.0625 C10.8988247 5.03943589 5.77584554 4.24010847 0 1 C0 0.67 0 0.34 0 0 Z " fill="#78776E" transform="translate(161,342)"/>
<path d="M0 0 C0.01030746 0.64844376 0.02061493 1.29688751 0.03123474 1.96498108 C0.13963459 8.72992353 0.25420413 15.49474175 0.37231445 22.25952148 C0.41555621 24.78228144 0.45723866 27.30506863 0.49731445 29.82788086 C0.55527814 33.45955606 0.61889702 37.09109551 0.68359375 40.72265625 C0.70030624 41.84583755 0.71701874 42.96901886 0.73423767 44.12623596 C0.81340594 48.33594512 0.91547795 52.41059529 1.51367188 56.58203125 C2.19686514 61.38359036 2.12285668 66.12161547 2.09765625 70.96484375 C2.0962413 71.99815323 2.09482635 73.03146271 2.09336853 74.09608459 C2.08779839 77.3765866 2.07525141 80.65701883 2.0625 83.9375 C2.05748114 86.16992089 2.05291891 88.40234285 2.04882812 90.63476562 C2.03783875 96.08986731 2.0211305 101.54492867 2 107 C0.56390719 107.02712808 -0.87233437 107.04645401 -2.30859375 107.0625 C-3.10837646 107.07410156 -3.90815918 107.08570313 -4.73217773 107.09765625 C-7.47542688 106.97952732 -9.56835919 106.25504042 -12 105 C-8.72814447 103.92689142 -6.57052408 104.10736898 -3.25 104.9375 C-2.45078125 105.13214844 -1.6515625 105.32679688 -0.828125 105.52734375 C0.07679688 105.76130859 0.07679688 105.76130859 1 106 C0.88123473 100.57383995 0.75695421 95.14784384 0.62768555 89.72192383 C0.58452272 87.87820825 0.54283549 86.03445748 0.50268555 84.19067383 C0.44452834 81.5319562 0.38096781 78.87341265 0.31640625 76.21484375 C0.29133751 74.98942116 0.29133751 74.98942116 0.26576233 73.73924255 C0.17889637 70.34094354 0.01500511 67.09806076 -0.5 63.73242188 C-1.24284623 58.18719081 -1.23783179 52.65560964 -1.31640625 47.06640625 C-1.33718735 45.83333237 -1.35796844 44.60025848 -1.37937927 43.32981873 C-1.44454023 39.40743352 -1.50360385 35.48498378 -1.5625 31.5625 C-1.60522252 28.89646899 -1.64933232 26.23046317 -1.69335938 23.56445312 C-1.80018722 17.04303612 -1.90201463 10.52155553 -2 4 C-2.66 4 -3.32 4 -4 4 C-4.99 3.67 -5.98 3.34 -7 3 C-3.375 0 -3.375 0 0 0 Z " fill="#4E4D48" transform="translate(208,141)"/>
<path d="M0 0 C-0.2449071 3.30624582 -1.27722338 4.29042449 -3.625 6.75 C-6.21426115 8.76663609 -7.17816216 9.02457409 -10.625 9.5 C-14.06614352 8.99020096 -15.52590535 8.37513086 -18 6 C-17.67 4.35 -17.34 2.7 -17 1 C-11.29014022 0.25983299 -5.75813575 -0.10469338 0 0 Z " fill="#292A24" transform="translate(291,105)"/>
<path d="M0 0 C7.71484375 -0.09765625 7.71484375 -0.09765625 10 0 C11 1 11 1 11.0625 4.0625 C11.041875 5.031875 11.02125 6.00125 11 7 C10.67 7 10.34 7 10 7 C10 5.35 10 3.7 10 2 C7.69 2 5.38 2 3 2 C3 3.98 3 5.96 3 8 C5.31 8 7.62 8 10 8 C10 8.33 10 8.66 10 9 C7.69 9 5.38 9 3 9 C3 11.31 3 13.62 3 16 C4.48206495 15.745504 5.96068615 15.47088238 7.4375 15.1875 C8.26121094 15.03667969 9.08492188 14.88585938 9.93359375 14.73046875 C10.95646484 14.36888672 10.95646484 14.36888672 12 14 C12.33 13.01 12.66 12.02 13 11 C13.125 13.375 13.125 13.375 13 16 C11 18 11 18 8.3984375 18.1953125 C5.59895833 18.13020833 2.79947917 18.06510417 0 18 C0 12.06 0 6.12 0 0 Z " fill="#CACBC3" transform="translate(356,40)"/>
<path d="M0 0 C0.66 0 1.32 0 2 0 C-0.32597697 6.28013783 -3.43006817 12.06928408 -8 17 C-11.44209157 18.25166966 -14.37672047 18.38608716 -18 18 C-17.69447318 14.94473183 -17.10249257 14.08625439 -14.70703125 12.0703125 C-13.75183594 11.42835938 -12.79664063 10.78640625 -11.8125 10.125 C-8.41207982 7.76678652 -5.29395869 5.49857106 -2.4375 2.5 C-1.633125 1.675 -0.82875 0.85 0 0 Z " fill="#D6D5CD" transform="translate(295,212)"/>
<path d="M0 0 C1.40907283 2.81814566 0.50872691 4.17277204 -0.4375 7.125 C-0.72496094 8.03507813 -1.01242188 8.94515625 -1.30859375 9.8828125 C-1.65083984 10.93082031 -1.65083984 10.93082031 -2 12 C-1.34 12 -0.68 12 0 12 C0 11.34 0 10.68 0 10 C0.66 10 1.32 10 2 10 C1.67 8.35 1.34 6.7 1 5 C1.99 4.34 2.98 3.68 4 3 C4.99 3.33 5.98 3.66 7 4 C7 3.34 7 2.68 7 2 C7.66 2.33 8.32 2.66 9 3 C8.21625 3.9075 7.4325 4.815 6.625 5.75 C4.68094459 8.07085267 3.31745703 10.27098187 2 13 C0.5 14.75 0.5 14.75 -1 16 C-1.66 16 -2.32 16 -3 16 C-3.12375 16.928125 -3.2475 17.85625 -3.375 18.8125 C-4 22 -4 22 -6 25 C-6.66 25 -7.32 25 -8 25 C-8 23.35 -8 21.7 -8 20 C-7.34 20 -6.68 20 -6 20 C-5.9175 19.0925 -5.835 18.185 -5.75 17.25 C-5.04016269 12.176751 -3.68094229 3.68094229 0 0 Z " fill="#B2B4AA" transform="translate(174,162)"/>
<path d="M0 0 C0.66 0.33 1.32 0.66 2 1 C0.62266092 5.61529411 -1.40773374 7.45574877 -5.3125 10.1875 C-6.25738281 10.86167969 -7.20226562 11.53585938 -8.17578125 12.23046875 C-10.7458614 13.84076793 -13.19950579 14.87980232 -16 16 C-16.6837045 17.32467746 -17.34964186 18.65863633 -18 20 C-20.5 21.8125 -20.5 21.8125 -23 23 C-23.66 22.67 -24.32 22.34 -25 22 C-23.38113585 20.32737283 -21.7547271 18.66204463 -20.125 17 C-19.22007812 16.071875 -18.31515625 15.14375 -17.3828125 14.1875 C-15 12 -15 12 -13 12 C-13 11.34 -13 10.68 -13 10 C-9.51803492 6.84193865 -6.06367989 4.37047993 -2 2 C-1.34 1.34 -0.68 0.68 0 0 Z " fill="#D9D9D4" transform="translate(229,92)"/>
<path d="M0 0 C-0.0625 1.8125 -0.0625 1.8125 -1 4 C-2.67431604 4.78791343 -4.35879913 5.56353513 -6.09375 6.20703125 C-8.31118504 7.05276214 -8.31118504 7.05276214 -11.1875 9.1875 C-14 11 -14 11 -18 11 C-17.67 13.64 -17.34 16.28 -17 19 C-17.66 19 -18.32 19 -19 19 C-19.33 15.37 -19.66 11.74 -20 8 C-17.61072363 6.65359017 -15.2147427 5.32290947 -12.8125 4 C-12.13896484 3.6184375 -11.46542969 3.236875 -10.77148438 2.84375 C-7.04780378 0.8093489 -4.37134612 -0.54323525 0 0 Z " fill="#E3E2DA" transform="translate(276,230)"/>
<path d="M0 0 C0.70125 -0.02578125 1.4025 -0.0515625 2.125 -0.078125 C2.74375 0.03015625 3.3625 0.1384375 4 0.25 C4.66 1.24 5.32 2.23 6 3.25 C2.7 3.25 -0.6 3.25 -4 3.25 C-4 3.91 -4 4.57 -4 5.25 C-4.66 5.25 -5.32 5.25 -6 5.25 C-5.69217504 6.89671412 -5.37860766 8.54235576 -5.0625 10.1875 C-4.80146484 11.56228516 -4.80146484 11.56228516 -4.53515625 12.96484375 C-4.22285012 15.20289844 -4.22285012 15.20289844 -3 16.25 C-1.65252916 16.48075082 -0.29622435 16.66153063 1.0625 16.8125 C2.361875 16.956875 3.66125 17.10125 5 17.25 C5 17.91 5 18.57 5 19.25 C1.59998941 19.60038277 -1.61059287 19.75469228 -5 19.25 C-8.28753641 16.04073827 -8.92643693 14.11804424 -9.3125 9.5625 C-9 6.25 -9 6.25 -8 3.25 C-7.34 3.25 -6.68 3.25 -6 3.25 C-6 2.59 -6 1.93 -6 1.25 C-3.78704384 0.14352192 -2.45327301 0.05411632 0 0 Z " fill="#C4C5BC" transform="translate(346,38.75)"/>
<path d="M0 0 C0.99 0.495 0.99 0.495 2 1 C2 1.99 2 2.98 2 4 C2.66 4 3.32 4 4 4 C4 5.98 4 7.96 4 10 C4.66 10 5.32 10 6 10 C6 17.92 6 25.84 6 34 C5.34 34 4.68 34 4 34 C4.061875 34.9075 4.12375 35.815 4.1875 36.75 C3.98327924 40.28982642 3.35448165 41.44931155 1 44 C2 38 2 38 2.52905273 35.19482422 C3.01286839 31.91270307 3.11344649 28.82376219 3.09765625 25.5078125 C3.09443359 24.30898437 3.09121094 23.11015625 3.08789062 21.875 C3.07951172 20.6375 3.07113281 19.4 3.0625 18.125 C3.05798828 16.86429688 3.05347656 15.60359375 3.04882812 14.3046875 C3.0370796 11.20307614 3.02065167 8.10156275 3 5 C2.34 5 1.68 5 1 5 C0.67 3.35 0.34 1.7 0 0 Z " fill="#4C4B45" transform="translate(404,182)"/>
<path d="M0 0 C0.33 0 0.66 0 1 0 C1.09765625 6.15234375 1.09765625 6.15234375 1 8 C0.67 8.33 0.34 8.66 0 9 C-1.53332781 18.2702593 -1.11615619 27.82196412 -1.0625 37.1875 C-1.05747197 38.72721208 -1.05291138 40.26692575 -1.04882812 41.80664062 C-1.03793264 45.53779428 -1.02074082 49.26888654 -1 53 C-1.33 53 -1.66 53 -2 53 C-2.83124031 48.65476763 -3.1285797 44.54646182 -3.1328125 40.125 C-3.13410156 38.80886719 -3.13539062 37.49273437 -3.13671875 36.13671875 C-3.13462402 35.45528809 -3.1325293 34.77385742 -3.13037109 34.07177734 C-3.12508672 32.03345034 -3.13029495 29.99535085 -3.13671875 27.95703125 C-3.14067306 19.25754097 -2.7431056 10.66674413 -2 2 C-1.34 2 -0.68 2 0 2 C0 1.34 0 0.68 0 0 Z " fill="#5E5F58" transform="translate(107,154)"/>
<path d="M0 0 C-1.90121727 2.57223513 -2.90439006 2.98470241 -6.125 3.5 C-8.043125 3.7475 -8.043125 3.7475 -10 4 C-12.32961615 4.7020761 -14.61418919 5.4962116 -16.91015625 6.30078125 C-19.24626775 7.08239613 -21.56875406 7.60786356 -24 8 C-24.33 7.01 -24.66 6.02 -25 5 C-16.9178184 2.00659941 -8.67470086 -0.20282574 0 0 Z " fill="#E9E8E3" transform="translate(319,162)"/>
<path d="M0 0 C1.09828769 3.54188278 1.11445011 6.8209762 1.09765625 10.515625 C1.09443359 11.76601563 1.09121094 13.01640625 1.08789062 14.3046875 C1.07951172 15.60664063 1.07113281 16.90859375 1.0625 18.25 C1.05798828 19.56742187 1.05347656 20.88484375 1.04882812 22.2421875 C1.03704316 25.49483741 1.02059011 28.74739584 1 32 C-2.15444055 25.69111891 -2.18341951 21.08373141 -2.1875 14 C-2.19974609 12.88109375 -2.21199219 11.7621875 -2.22460938 10.609375 C-2.22654297 9.54203125 -2.22847656 8.4746875 -2.23046875 7.375 C-2.23457764 6.39273437 -2.23868652 5.41046875 -2.24291992 4.3984375 C-2 2 -2 2 0 0 Z " fill="#464740" transform="translate(100,252)"/>
<path d="M0 0 C3.20825562 -0.05849554 6.41637233 -0.09376162 9.625 -0.125 C10.52863281 -0.14175781 11.43226563 -0.15851563 12.36328125 -0.17578125 C17.32750152 -0.21201643 21.34411907 0.03555854 26 2 C22.33134759 4.44576827 20.32799657 4.23607254 16 4 C15.34 3.67 14.68 3.34 14 3 C10.62583985 2.72357336 7.25198439 2.55294991 3.87109375 2.37890625 C2.92363281 2.25386719 1.97617187 2.12882813 1 2 C0.67 1.34 0.34 0.68 0 0 Z " fill="#ECEBE6" transform="translate(348,158)"/>
<path d="M0 0 C-1.98 0.99 -1.98 0.99 -4 2 C2.27 2.33 8.54 2.66 15 3 C15 3.33 15 3.66 15 4 C5.1 4.66 -4.8 5.32 -15 6 C-15 5.34 -15 4.68 -15 4 C-11.535 3.505 -11.535 3.505 -8 3 C-8 2.34 -8 1.68 -8 1 C-4.93251126 -0.86240388 -3.40254489 -1.2151946 0 0 Z " fill="#959390" transform="translate(300,177)"/>
<path d="M0 0 C0.66 0.33 1.32 0.66 2 1 C-4.18461538 7.18461538 -4.18461538 7.18461538 -8.25 7.3125 C-11.89121479 7.29507792 -12.87970143 7.07856233 -16.0625 5 C-16.701875 4.34 -17.34125 3.68 -18 3 C-17.67 2.34 -17.34 1.68 -17 1 C-16.319375 1.33 -15.63875 1.66 -14.9375 2 C-11.38445726 3.20954646 -8.73590914 3.33356332 -5 3 C-2.25427272 1.52012037 -2.25427272 1.52012037 0 0 Z " fill="#E5E5DF" transform="translate(289,110)"/>
<path d="M0 0 C3.3 0 6.6 0 10 0 C10 0.33 10 0.66 10 1 C7.03 1 4.06 1 1 1 C1 6.94 1 12.88 1 19 C0.34 18.34 -0.32 17.68 -1 17 C-1.33 17.66 -1.66 18.32 -2 19 C-2.66 19 -3.32 19 -4 19 C-4 18.34 -4 17.68 -4 17 C-6.64 17 -9.28 17 -12 17 C-12.33 16.34 -12.66 15.68 -13 15 C-7.06 14.505 -7.06 14.505 -1 14 C-0.67 9.38 -0.34 4.76 0 0 Z " fill="#5E5F56" transform="translate(355,39)"/>
<path d="M0 0 C0.33 0.66 0.66 1.32 1 2 C0.06421005 4.35981813 -0.93347808 6.69631264 -2 9 C-2.66 9 -3.32 9 -4 9 C-4 16.59 -4 24.18 -4 32 C-6.7491995 27.87620075 -6.33087475 24.59358327 -6.3125 19.75 C-6.32861328 18.91597656 -6.34472656 18.08195312 -6.36132812 17.22265625 C-6.36622268 10.98698722 -5.54939969 5.92708854 -1.3125 1.0625 C-0.6628125 0.5365625 -0.6628125 0.5365625 0 0 Z " fill="#A5A49E" transform="translate(167,230)"/>
<path d="M0 0 C1 2 1 2 1 5 C2.12277344 5.10957031 3.24554688 5.21914062 4.40234375 5.33203125 C12.29886571 6.15155646 19.57056045 7.02822418 27 10 C23.1848105 11.4026432 20.37666703 10.57670429 16.5 9.625 C9.99284406 8.13121892 3.65928168 7.35369811 -3 7 C-3 6.01 -3 5.02 -3 4 C-2.34 4 -1.68 4 -1 4 C-0.67 2.68 -0.34 1.36 0 0 Z " fill="#676661" transform="translate(353,150)"/>
<path d="M0 0 C4.64223602 0.62732919 4.64223602 0.62732919 6.5 2.5625 C7.97875026 4.28656977 7.97875026 4.28656977 10.6875 4.1875 C11.450625 4.125625 12.21375 4.06375 13 4 C13 5.32 13 6.64 13 8 C14.1446875 8.1546875 14.1446875 8.1546875 15.3125 8.3125 C18.17059424 9.04364039 19.15742885 9.76951913 21 12 C18.69 11.67 16.38 11.34 14 11 C14 10.34 14 9.68 14 9 C13.01 9 12.02 9 11 9 C11 8.34 11 7.68 11 7 C9.948125 6.5978125 9.948125 6.5978125 8.875 6.1875 C5.8350176 4.9318551 2.9272226 3.49764877 0 2 C0 1.34 0 0.68 0 0 Z " fill="#9D9C96" transform="translate(133,328)"/>
<path d="M0 0 C3.36704285 -0.2295711 5.41370268 -0.33943529 8.375 1.375 C8.91125 1.91125 9.4475 2.4475 10 3 C10 3.66 10 4.32 10 5 C10.66 5 11.32 5 12 5 C12 6.65 12 8.3 12 10 C8.55862568 8.4705003 5.7777867 6.54630448 3 4 C3 3.01 3 2.02 3 1 C2.01 0.67 1.02 0.34 0 0 Z " fill="#282723" transform="translate(167,227)"/>
<path d="M0 0 C0.66 0 1.32 0 2 0 C1.34 8.25 0.68 16.5 0 25 C-3.65488743 19.51766885 -2.61343166 11.65414894 -1.546875 5.30078125 C-1.09819597 3.51567969 -0.56097783 1.75305571 0 0 Z " fill="#ADACA7" transform="translate(138,249)"/>
<path d="M0 0 C-1.64178265 4.77609498 -4.26546702 8.79382904 -7 13 C-7.33 12.01 -7.66 11.02 -8 10 C-9.65 10.33 -11.3 10.66 -13 11 C-11.83593677 9.83593677 -10.67129061 8.67245135 -9.50390625 7.51171875 C-8.4596661 6.46205398 -7.42652024 5.40128152 -6.40234375 4.33203125 C-2.21437055 0 -2.21437055 0 0 0 Z " fill="#C6C5BD" transform="translate(297,212)"/>
<path d="M0 0 C0.70125 -0.02578125 1.4025 -0.0515625 2.125 -0.078125 C2.74375 0.03015625 3.3625 0.1384375 4 0.25 C4.66 1.24 5.32 2.23 6 3.25 C2.7 3.25 -0.6 3.25 -4 3.25 C-4.33 3.91 -4.66 4.57 -5 5.25 C-5.66 4.92 -6.32 4.59 -7 4.25 C-7.33 7.22 -7.66 10.19 -8 13.25 C-8.33 13.25 -8.66 13.25 -9 13.25 C-9.125 6.625 -9.125 6.625 -8 3.25 C-7.34 3.25 -6.68 3.25 -6 3.25 C-6 2.59 -6 1.93 -6 1.25 C-3.78704384 0.14352192 -2.45327301 0.05411632 0 0 Z " fill="#A5A79E" transform="translate(346,38.75)"/>
<path d="M0 0 C0.69867188 -0.00386719 1.39734375 -0.00773438 2.1171875 -0.01171875 C5.87074298 -0.00463657 9.35151145 0.22712977 13 1.125 C13 1.455 13 1.785 13 2.125 C6.565 2.62 6.565 2.62 0 3.125 C0 2.465 0 1.805 0 1.125 C-5.28 1.785 -10.56 2.445 -16 3.125 C-10.9383147 -0.24945687 -5.93822109 -0.03286838 0 0 Z " fill="#BFBEB8" transform="translate(165,195.875)"/>
<path d="M0 0 C0.66 1.32 1.32 2.64 2 4 C-1.35650496 7.05433785 -3.83647838 7.42513064 -8.3125 7.625 C-12.94036623 7.88036649 -17.42790064 8.25570475 -22 9 C-15.59375749 4.72917166 -8.49861996 4.51527587 -1 4 C-0.67 2.68 -0.34 1.36 0 0 Z " fill="#B0AFA9" transform="translate(321,156)"/>
<path d="M0 0 C0.33 0 0.66 0 1 0 C1.06058594 0.76183594 1.12117187 1.52367187 1.18359375 2.30859375 C1.69036702 8.55359974 2.2739467 14.77668601 3 21 C3.66 21 4.32 21 5 21 C5.33 23.64 5.66 26.28 6 29 C1.22836054 25.12387831 0.8876219 18.7633783 0 13 C-0.2176873 8.65078924 -0.19219878 4.34938721 0 0 Z " fill="#4F4E48" transform="translate(138,261)"/>
<path d="M0 0 C0.66 0.33 1.32 0.66 2 1 C2.02908357 4.41664873 2.04682691 7.8332655 2.0625 11.25 C2.07087891 12.21808594 2.07925781 13.18617188 2.08789062 14.18359375 C2.09111328 15.11816406 2.09433594 16.05273438 2.09765625 17.015625 C2.10289307 17.87446289 2.10812988 18.73330078 2.11352539 19.61816406 C2.00511573 21.89266859 1.59592156 23.81191034 1 26 C1 26.66 1 27.32 1 28 C0.01 28 -0.98 28 -2 28 C-1.855625 27.48695313 -1.71125 26.97390625 -1.5625 26.4453125 C0.55919278 17.69332977 0.17528489 8.93952959 0 0 Z " fill="#3C3A36" transform="translate(196,217)"/>
<path d="M0 0 C0.66 0.33 1.32 0.66 2 1 C0.73461332 4.90160892 -0.34474789 7.02418805 -4 9 C-7.75 9.6875 -7.75 9.6875 -11 10 C-8.3310967 6.34261399 -5.95013947 4.18297181 -2 2 C-1.34 1.34 -0.68 0.68 0 0 Z " fill="#C0C1BC" transform="translate(229,92)"/>
<path d="M0 0 C1.98 0 3.96 0 6 0 C6.38218767 1.65614657 6.71395102 3.32457024 7 5 C6 6 6 6 2.9375 6.0625 C1.4834375 6.0315625 1.4834375 6.0315625 0 6 C0 4.02 0 2.04 0 0 Z " fill="#30312A" transform="translate(359,50)"/>
<path d="M0 0 C0.66 0.33 1.32 0.66 2 1 C0.68 3.31 -0.64 5.62 -2 8 C-2.66 8 -3.32 8 -4 8 C-4.0825 8.5775 -4.165 9.155 -4.25 9.75 C-5.20531013 12.6159304 -6.78469173 13.9990764 -9 16 C-9.66 15.67 -10.32 15.34 -11 15 C-9.88625 13.7625 -9.88625 13.7625 -8.75 12.5 C-6.17812026 9.44725889 -4.51963052 6.26725968 -2.89453125 2.63671875 C-2 1 -2 1 0 0 Z " fill="#5F6058" transform="translate(188,156)"/>
<path d="M0 0 C0 0.66 0 1.32 0 2 C-0.99 2.495 -0.99 2.495 -2 3 C-1.67 3.66 -1.34 4.32 -1 5 C-1.99 5 -2.98 5 -4 5 C-4 7.31 -4 9.62 -4 12 C-4.66 12 -5.32 12 -6 12 C-6 9.69 -6 7.38 -6 5 C-6.66 4.67 -7.32 4.34 -8 4 C-7.34 4 -6.68 4 -6 4 C-6 3.34 -6 2.68 -6 2 C-2.25 0 -2.25 0 0 0 Z " fill="#30322A" transform="translate(251,113)"/>
<path d="M0 0 C1.33332095 2.6666419 0.67102033 4.16680303 0 7 C-0.66 6.67 -1.32 6.34 -2 6 C-2.680625 7.2065625 -2.680625 7.2065625 -3.375 8.4375 C-5 11 -5 11 -7 12 C-7.66 11.34 -8.32 10.68 -9 10 C-6.03 6.7 -3.06 3.4 0 0 Z " fill="#B3B6AF" transform="translate(339,254)"/>
<path d="M0 0 C4.95769796 -0.29162929 8.02806853 -0.12940055 12 3 C12 3.66 12 4.32 12 5 C12.66 5.33 13.32 5.66 14 6 C8.65155992 5.46515599 4.64203897 3.53309233 0 1 C0 0.67 0 0.34 0 0 Z " fill="#E6E5E0" transform="translate(376,162)"/>
<path d="M0 0 C-4.64982247 3.60811072 -8.7012552 3.36022182 -14.3125 3.1875 C-15.14845703 3.17396484 -15.98441406 3.16042969 -16.84570312 3.14648438 C-18.89741498 3.11131217 -20.94879275 3.05751048 -23 3 C-23.33 2.34 -23.66 1.68 -24 1 C-18.39 1.33 -12.78 1.66 -7 2 C-7 1.34 -7 0.68 -7 0 C-2.25 -1.125 -2.25 -1.125 0 0 Z " fill="#90908B" transform="translate(295,131)"/>
<path d="M0 0 C3.3 0.33 6.6 0.66 10 1 C10 1.66 10 2.32 10 3 C12.31 3.33 14.62 3.66 17 4 C11.94385559 5.82021199 7.31464177 4.59756444 2.5625 2.4375 C1.716875 1.963125 0.87125 1.48875 0 1 C0 0.67 0 0.34 0 0 Z " fill="#7D7D74" transform="translate(161,342)"/>
<path d="M0 0 C0.33 0 0.66 0 1 0 C1.125 2.375 1.125 2.375 1 5 C-1 7 -1 7 -3.6015625 7.1953125 C-4.59929687 7.17210937 -5.59703125 7.14890625 -6.625 7.125 C-8.12933594 7.09792969 -8.12933594 7.09792969 -9.6640625 7.0703125 C-10.43492187 7.04710937 -11.20578125 7.02390625 -12 7 C-9.14521674 5.09681116 -7.58058692 4.5380901 -4.3125 3.875 C-3.50425781 3.70742188 -2.69601562 3.53984375 -1.86328125 3.3671875 C-1.24839844 3.24601562 -0.63351562 3.12484375 0 3 C0 2.01 0 1.02 0 0 Z " fill="#C1C2B9" transform="translate(368,51)"/>
<path d="M0 0 C0 0.66 0 1.32 0 2 C-0.95712891 2.09087891 -0.95712891 2.09087891 -1.93359375 2.18359375 C-3.17302734 2.30927734 -3.17302734 2.30927734 -4.4375 2.4375 C-5.67306641 2.55931641 -5.67306641 2.55931641 -6.93359375 2.68359375 C-8.98662025 2.78930815 -8.98662025 2.78930815 -10 4 C-11.99958364 4.04080783 -14.00045254 4.04254356 -16 4 C-15.67 3.34 -15.34 2.68 -15 2 C-12.890625 1.3671875 -12.890625 1.3671875 -10.25 0.875 C-8.95835937 0.62363281 -8.95835937 0.62363281 -7.640625 0.3671875 C-5.05466179 0.0076009 -2.60686191 -0.06564041 0 0 Z " fill="#EDECE7" transform="translate(165,197)"/>
<path d="M0 0 C1.65 0 3.3 0 5 0 C5.33 1.65 5.66 3.3 6 5 C4.02 5 2.04 5 0 5 C0 3.35 0 1.7 0 0 Z " fill="#2D2E28" transform="translate(359,42)"/>
<path d="M0 0 C4.29 0 8.58 0 13 0 C13 0.33 13 0.66 13 1 C5.90961228 2.50974035 -0.75002578 3.28307925 -8 3 C-8 2.67 -8 2.34 -8 2 C-5.36 2 -2.72 2 0 2 C0 1.34 0 0.68 0 0 Z " fill="#ABAAA2" transform="translate(225,345)"/>
<path d="M0 0 C0.33 0 0.66 0 1 0 C2.01911045 3.89114901 2.16782969 5.60596507 0.5625 9.375 C0.046875 10.24125 -0.46875 11.1075 -1 12 C-1.66 12 -2.32 12 -3 12 C-3 10.35 -3 8.7 -3 7 C-2.34 7 -1.68 7 -1 7 C-0.67 4.69 -0.34 2.38 0 0 Z " fill="#8B8A82" transform="translate(169,175)"/>
<path d="M0 0 C0.75 1.75 0.75 1.75 1 4 C-1.05226666 6.76266666 -2.41531259 7.8405398 -5.75 8.75 C-6.86375 8.87375 -6.86375 8.87375 -8 9 C-7.04270084 7.87411986 -6.08412105 6.7493285 -5.125 5.625 C-4.59132812 4.99851562 -4.05765625 4.37203125 -3.5078125 3.7265625 C-2.38567993 2.44163349 -1.20628025 1.20628025 0 0 Z " fill="#C6C7C2" transform="translate(212,106)"/>
<path d="M0 0 C0.66 0.33 1.32 0.66 2 1 C1.34 2.98 0.68 4.96 0 7 C-1.32 7 -2.64 7 -4 7 C-4.33 8.32 -4.66 9.64 -5 11 C-5 10.34 -5 9.68 -5 9 C-5.66 9 -6.32 9 -7 9 C-5.76448756 5.29346269 -4.03334922 4.35084565 -1 2 C-0.67 1.34 -0.34 0.68 0 0 Z " fill="#83847D" transform="translate(276,98)"/>
<path d="M0 0 C1 2 1 2 0.4375 4.4375 C-1.46156802 7.82279516 -3.41887093 8.6570766 -7 10 C-7.66 9.67 -8.32 9.34 -9 9 C-6.03 6.03 -3.06 3.06 0 0 Z " fill="#C0C1BB" transform="translate(155,72)"/>
<path d="M0 0 C3.63 0 7.26 0 11 0 C11 0.66 11 1.32 11 2 C13.31 2 15.62 2 18 2 C18 2.33 18 2.66 18 3 C11.59370576 3.20852314 6.07027358 3.1583195 0 1 C0 0.67 0 0.34 0 0 Z " fill="#A6A69D" transform="translate(175,345)"/>
<path d="M0 0 C0.33 0.66 0.66 1.32 1 2 C0.01 2 -0.98 2 -2 2 C-2.226875 2.804375 -2.45375 3.60875 -2.6875 4.4375 C-3.3371875 5.7059375 -3.3371875 5.7059375 -4 7 C-6.25 7.6875 -6.25 7.6875 -9 8 C-11.00744615 8.64389782 -13.00945124 9.30562253 -15 10 C-13.3081687 6.61633741 -9.57659852 5.76864249 -6.25 4.21875 C-3.86303466 3.20395461 -3.86303466 3.20395461 -3 1 C-2.01 0.67 -1.02 0.34 0 0 Z " fill="#A5A59F" transform="translate(308,282)"/>
<path d="M0 0 C0.6875 1.6875 0.6875 1.6875 1 4 C-0.3125 6.75 -0.3125 6.75 -2 9 C-2.66 9 -3.32 9 -4 9 C-4 9.99 -4 10.98 -4 12 C-4.66 12 -5.32 12 -6 12 C-5.67 10.35 -5.34 8.7 -5 7 C-4.34 7 -3.68 7 -3 7 C-2.87625 6.401875 -2.7525 5.80375 -2.625 5.1875 C-2 3 -2 3 0 0 Z " fill="#979890" transform="translate(186,137)"/>
<path d="M0 0 C0.33 0.66 0.66 1.32 1 2 C1.66 2.33 2.32 2.66 3 3 C1.35 3.33 -0.3 3.66 -2 4 C-1.67 6.64 -1.34 9.28 -1 12 C-1.66 12 -2.32 12 -3 12 C-3.33 8.37 -3.66 4.74 -4 1 C-2 0 -2 0 0 0 Z " fill="#A9A8A1" transform="translate(260,237)"/>
<path d="M0 0 C0.66 0.33 1.32 0.66 2 1 C0.02 3.31 -1.96 5.62 -4 8 C-4.66 7.34 -5.32 6.68 -6 6 C-5.75 3.9375 -5.75 3.9375 -5 2 C-4.34 1.67 -3.68 1.34 -3 1 C-2.01 1.33 -1.02 1.66 0 2 C0 1.34 0 0.68 0 0 Z " fill="#BBBCB4" transform="translate(181,164)"/>
<path d="M0 0 C0.66 0.33 1.32 0.66 2 1 C1.01 2.485 1.01 2.485 0 4 C-1.32 4 -2.64 4 -4 4 C-4 4.66 -4 5.32 -4 6 C-6.31 6.33 -8.62 6.66 -11 7 C-9.60623819 4.21247638 -7.82491442 3.69568885 -5.0625 2.3125 C-4.16660156 1.85488281 -3.27070313 1.39726562 -2.34765625 0.92578125 C-1.57292969 0.62027344 -0.79820312 0.31476563 0 0 Z " fill="#494841" transform="translate(321,316)"/>
<path d="M0 0 C0.33 0.99 0.66 1.98 1 3 C-2.50776784 4.60355101 -5.14354879 5.22036864 -9 5 C-6.45523312 2.20075644 -3.92372883 0 0 0 Z " fill="#AEADA6" transform="translate(284,297)"/>
<path d="M0 0 C1.0390625 1.8828125 1.0390625 1.8828125 2 4 C0.77502914 7.67491258 -1.82910631 10.81602259 -4 14 C-4.33 13.34 -4.66 12.68 -5 12 C-4.26821134 9.92803369 -3.44100997 7.8891448 -2.5625 5.875 C-2.08941406 4.77929688 -1.61632812 3.68359375 -1.12890625 2.5546875 C-0.75636719 1.71164063 -0.38382812 0.86859375 0 0 Z " fill="#B0B1A7" transform="translate(108,232)"/>
<path d="M0 0 C0 0.66 0 1.32 0 2 C-1.98 2.66 -3.96 3.32 -6 4 C-6 4.66 -6 5.32 -6 6 C-8.31 6.33 -10.62 6.66 -13 7 C-11.60643954 4.21287908 -9.83494327 3.73536671 -7.0625 2.375 C-6.16660156 1.92898437 -5.27070313 1.48296875 -4.34765625 1.0234375 C-2 0 -2 0 0 0 Z " fill="#88887F" transform="translate(273,230)"/>
<path d="M0 0 C1 2 1 2 0.375 5 C-1 8 -1 8 -3.625 9.375 C-4.40875 9.58125 -5.1925 9.7875 -6 10 C-4.6302836 6.00499382 -2.74277578 3.19990508 0 0 Z " fill="#4C4B43" transform="translate(289,225)"/>
<path d="M0 0 C0.33 0 0.66 0 1 0 C1.375 7.5 1.375 7.5 -2 12 C-2 8.7 -2 5.4 -2 2 C-1.34 2 -0.68 2 0 2 C0 1.34 0 0.68 0 0 Z " fill="#54554F" transform="translate(107,154)"/>
<path d="M0 0 C0.99 0.33 1.98 0.66 3 1 C1.92570402 1.84495189 0.84010798 2.67554858 -0.25 3.5 C-1.15492188 4.19609375 -1.15492188 4.19609375 -2.078125 4.90625 C-4 6 -4 6 -8 6 C-8 5.34 -8 4.68 -8 4 C-6.02 3.67 -4.04 3.34 -2 3 C-2 2.34 -2 1.68 -2 1 C-1.34 0.67 -0.68 0.34 0 0 Z " fill="#E0E0D8" transform="translate(292,293)"/>
<path d="M0 0 C0.66 0 1.32 0 2 0 C2.5625 1.9375 2.5625 1.9375 3 4 C2.67 4.33 2.34 4.66 2 5 C1.76572222 7.01594582 1.58663876 9.038474 1.4375 11.0625 C1.35371094 12.16722656 1.26992187 13.27195313 1.18359375 14.41015625 C1.12300781 15.26480469 1.06242188 16.11945313 1 17 C0.67 17 0.34 17 0 17 C0 11.39 0 5.78 0 0 Z " fill="#575650" transform="translate(253,240)"/>
<path d="M0 0 C0.66 0 1.32 0 2 0 C2 0.66 2 1.32 2 2 C6.62 2 11.24 2 16 2 C16 2.33 16 2.66 16 3 C9.73 3 3.46 3 -3 3 C-2.01 2.01 -1.02 1.02 0 0 Z " fill="#63625F" transform="translate(297,177)"/>
<path d="M0 0 C0.33 0.66 0.66 1.32 1 2 C-1.50475817 4.50475817 -3.07589476 5.95701836 -6.6875 6.125 C-7.8321875 6.063125 -7.8321875 6.063125 -9 6 C-3.85714286 0.42857143 -3.85714286 0.42857143 0 0 Z " fill="#B3B1AF" transform="translate(282,172)"/>
<path d="M0 0 C-0.33 0.66 -0.66 1.32 -1 2 C-3.3140622 2.73075648 -5.64828869 3.40138258 -8 4 C-8 2.68 -8 1.36 -8 0 C-4.71303767 -0.79953138 -3.28976808 -1.09658936 0 0 Z " fill="#EAEAE7" transform="translate(269,77)"/>
<path d="M0 0 C1.60407328 -0.02708567 3.2082785 -0.04643483 4.8125 -0.0625 C5.70582031 -0.07410156 6.59914062 -0.08570313 7.51953125 -0.09765625 C10 0 10 0 13 1 C13 1.66 13 2.32 13 3 C8.62065881 2.48041715 4.31196609 1.94324258 0 1 C0 0.67 0 0.34 0 0 Z " fill="#E9E7E3" transform="translate(197,248)"/>
<path d="M0 0 C2.70931419 0.15481795 4.46584039 0.48172081 6.4453125 2.40234375 C7.67679642 3.89771708 8.8429837 5.4462924 10 7 C8.02 7 6.04 7 4 7 C3.67 5.35 3.34 3.7 3 2 C2.01 1.67 1.02 1.34 0 1 C0 0.67 0 0.34 0 0 Z " fill="#AAA9A2" transform="translate(385,163)"/>
<path d="M0 0 C0 2.31 0 4.62 0 7 C-2 6 -2 6 -3 3 C-4.65 3.66 -6.3 4.32 -8 5 C-7 2 -7 2 -5.125 0.8125 C-3 0 -3 0 0 0 Z " fill="#E7E6E0" transform="translate(245,127)"/>
<path d="M0 0 C0.33 0.66 0.66 1.32 1 2 C-1.17508418 6.69360269 -1.17508418 6.69360269 -4.1875 7.8125 C-4.785625 7.874375 -5.38375 7.93625 -6 8 C-4.55746343 4.63408134 -2.66735273 2.48952921 0 0 Z " fill="#B3B4AE" transform="translate(203,115)"/>
<path d="M0 0 C4.10899581 1.12795963 8.07561214 2.33510818 12 4 C9.29120665 5.35439668 6.99066732 5.06501451 4 5 C4 4.01 4 3.02 4 2 C2.68 2 1.36 2 0 2 C0 1.34 0 0.68 0 0 Z " fill="#313027" transform="translate(150,339)"/>
<path d="M0 0 C0.99 0.33 1.98 0.66 3 1 C3 1.66 3 2.32 3 3 C3.66 3 4.32 3 5 3 C5 4.65 5 6.3 5 8 C1.125 6.25 1.125 6.25 0 4 C0.66 4 1.32 4 2 4 C2 3.34 2 2.68 2 2 C1.34 2 0.68 2 0 2 C0 1.34 0 0.68 0 0 Z " fill="#5E5D59" transform="translate(174,229)"/>
<path d="M0 0 C1.10844919 3.32534757 0.84454356 5.62182575 0 9 C-0.66 9 -1.32 9 -2 9 C-2.33 10.32 -2.66 11.64 -3 13 C-4 11 -4 11 -3.1875 8.1875 C-2.16400226 5.44021658 -1.11622346 2.71082841 0 0 Z " fill="#74726D" transform="translate(363,127)"/>
<path d="M0 0 C4.54805635 -0.17835515 7.8794254 0.00214565 12 2 C12 2.33 12 2.66 12 3 C4.61538462 3.36923077 4.61538462 3.36923077 1.5 1.5 C1.005 1.005 0.51 0.51 0 0 Z " fill="#E9E8E2" transform="translate(173,320)"/>
<path d="M0 0 C0.33 0.66 0.66 1.32 1 2 C-1.23943282 5.35914922 -2.26842083 5.81681636 -6 7 C-6.99 7 -7.98 7 -9 7 C-6.03 4.69 -3.06 2.38 0 0 Z " fill="#4B4944" transform="translate(303,124)"/>
<path d="M0 0 C-4.625 4 -4.625 4 -8 4 C-5.97675095 -0.48005146 -4.79569304 -1.43870791 0 0 Z " fill="#E9E9E4" transform="translate(237,92)"/>
<path d="M0 0 C1.45945288 0.08708669 2.91765868 0.19526907 4.375 0.3125 C5.59316406 0.39951172 5.59316406 0.39951172 6.8359375 0.48828125 C9 1 9 1 11 4 C7.1936543 3.32829194 3.64793184 2.27253436 0 1 C0 0.67 0 0.34 0 0 Z " fill="#56574F" transform="translate(325,73)"/>
<path d="M0 0 C0.66 0.33 1.32 0.66 2 1 C2 1.99 2 2.98 2 4 C0 5.6875 0 5.6875 -2 7 C-2.99 6.34 -3.98 5.68 -5 5 C-3.625 3.5 -3.625 3.5 -2 2 C-1.34 2 -0.68 2 0 2 C0 1.34 0 0.68 0 0 Z " fill="#C2C3BE" transform="translate(161,66)"/>
<path d="M0 0 C7.57142857 1.85714286 7.57142857 1.85714286 10 5 C7.69 4.67 5.38 4.34 3 4 C3 3.34 3 2.68 3 2 C2.01 2 1.02 2 0 2 C0 1.34 0 0.68 0 0 Z " fill="#74736C" transform="translate(144,335)"/>
<path d="M0 0 C-1.5625 2 -1.5625 2 -4 4 C-7.75 4.25 -7.75 4.25 -11 4 C-9.71264403 1.42528807 -8.71510189 1.29583343 -6.0625 0.3125 C-5.35222656 0.04050781 -4.64195312 -0.23148437 -3.91015625 -0.51171875 C-2 -1 -2 -1 0 0 Z " fill="#43423B" transform="translate(293,331)"/>
<path d="M0 0 C0.99 0.33 1.98 0.66 3 1 C1.68 3.64 0.36 6.28 -1 9 C-1.66 9 -2.32 9 -3 9 C-2.01 6.03 -1.02 3.06 0 0 Z " fill="#E6E6E2" transform="translate(121,119)"/>
<path d="M0 0 C2.55028983 1.27514492 2.93081711 2.40341297 4 5 C4 5.99 4 6.98 4 8 C4.66 8 5.32 8 6 8 C5.67 8.99 5.34 9.98 5 11 C5 10.34 5 9.68 5 9 C4.34 9 3.68 9 3 9 C3 8.34 3 7.68 3 7 C2.34 7 1.68 7 1 7 C0.67 4.69 0.34 2.38 0 0 Z " fill="#686660" transform="translate(104,293)"/>
<path d="M0 0 C0.66 0.33 1.32 0.66 2 1 C1.8125 2.8125 1.8125 2.8125 1 5 C-1.4375 6.8125 -1.4375 6.8125 -4 8 C-4.66 7.67 -5.32 7.34 -6 7 C-4.02 4.69 -2.04 2.38 0 0 Z " fill="#53544C" transform="translate(281,235)"/>
<path d="M0 0 C0.33 1.32 0.66 2.64 1 4 C-1.64 4.33 -4.28 4.66 -7 5 C-2.25 0 -2.25 0 0 0 Z " fill="#AFAEA5" transform="translate(284,223)"/>
<path d="M0 0 C-1.49097658 3.7952131 -3.75700849 5.61042731 -7 8 C-7.66 7.67 -8.32 7.34 -9 7 C-7.88121617 5.82737096 -6.75476949 4.66204862 -5.625 3.5 C-4.68527344 2.52546875 -4.68527344 2.52546875 -3.7265625 1.53125 C-2 0 -2 0 0 0 Z " fill="#97968E" transform="translate(297,212)"/>
<path d="M0 0 C-0.639375 0.103125 -1.27875 0.20625 -1.9375 0.3125 C-2.9584375 0.6528125 -2.9584375 0.6528125 -4 1 C-4.33 1.99 -4.66 2.98 -5 4 C-5.33 3.01 -5.66 2.02 -6 1 C-7.32 1.33 -8.64 1.66 -10 2 C-10 1.34 -10 0.68 -10 0 C-6.30458414 -0.95024979 -3.69541586 -0.95024979 0 0 Z " fill="#BBBCB7" transform="translate(271,107)"/>
<path d="M0 0 C0.66 0 1.32 0 2 0 C2.33 0.99 2.66 1.98 3 3 C1.68 4.32 0.36 5.64 -1 7 C-1.625 5.1875 -1.625 5.1875 -2 3 C-1.34 2.01 -0.68 1.02 0 0 Z " fill="#C8C8C4" transform="translate(130,101)"/>
<path d="M0 0 C0.99 0.33 1.98 0.66 3 1 C3.33 3.64 3.66 6.28 4 9 C1.47740939 7.02579865 1.0070192 6.03254358 0.3125 2.8125 C0.209375 1.884375 0.10625 0.95625 0 0 Z " fill="#5F5E58" transform="translate(140,281)"/>
<path d="M0 0 C0.99 0.33 1.98 0.66 3 1 C0.03 3.475 0.03 3.475 -3 6 C-3.66 5.67 -4.32 5.34 -5 5 C-3.35 3.35 -1.7 1.7 0 0 Z " fill="#DDDDD8" transform="translate(320,274)"/>
<path d="M0 0 C0.33 0.66 0.66 1.32 1 2 C0.06421005 4.35981813 -0.93347808 6.69631264 -2 9 C-2.66 9 -3.32 9 -4 9 C-2.25 2.25 -2.25 2.25 0 0 Z " fill="#B3B1AD" transform="translate(167,230)"/>
<path d="M0 0 C3 1 3 1 5 4 C5.125 6.6875 5.125 6.6875 5 9 C4.67 8.34 4.34 7.68 4 7 C3.34 7 2.68 7 2 7 C2 5.35 2 3.7 2 2 C1.34 2 0.68 2 0 2 C0 1.34 0 0.68 0 0 Z " fill="#C3C1BD" transform="translate(186,203)"/>
<path d="M0 0 C0 3.99904969 -1.72586967 5.80200422 -4 9 C-4.8125 7.3125 -4.8125 7.3125 -5 5 C-2.5625 2.25 -2.5625 2.25 0 0 Z " fill="#E2E1DD" transform="translate(270,182)"/>
<path d="M0 0 C-0.33 0.99 -0.66 1.98 -1 3 C-3.64 3.33 -6.28 3.66 -9 4 C-8.01 3.67 -7.02 3.34 -6 3 C-6 2.34 -6 1.68 -6 1 C-3 0 -3 0 0 0 Z " fill="#EDECE8" transform="translate(293,169)"/>
<path d="M0 0 C0.66 0.33 1.32 0.66 2 1 C1.01 1.66 0.02 2.32 -1 3 C-1 3.66 -1 4.32 -1 5 C-3.31 5 -5.62 5 -8 5 C-6.35197949 1.70395897 -3.32254422 1.22409524 0 0 Z " fill="#BAB9B4" transform="translate(296,165)"/>
<path d="M0 0 C0.66 0.33 1.32 0.66 2 1 C-0.06756277 3.7972908 -1.14440371 4.02692273 -4.6875 4.6875 C-5.780625 4.790625 -6.87375 4.89375 -8 5 C-6.35197949 1.70395897 -3.32254422 1.22409524 0 0 Z " fill="#5D5E59" transform="translate(227,58)"/>
<path d="M0 0 C0.33 0.99 0.66 1.98 1 3 C1.66 3 2.32 3 3 3 C3 5.64 3 8.28 3 11 C0.87953208 7.46588679 0.46800711 4.05606165 0 0 Z " fill="#403F38" transform="translate(98,273)"/>
<path d="M0 0 C0.33 0 0.66 0 1 0 C2.07421875 5.95703125 2.07421875 5.95703125 2 8 C1.01 8.99 0.02 9.98 -1 11 C-0.67 7.37 -0.34 3.74 0 0 Z " fill="#CCCCC7" transform="translate(102,255)"/>
<path d="M0 0 C0.33 0.66 0.66 1.32 1 2 C-4.75 5 -4.75 5 -7 5 C-7 4.34 -7 3.68 -7 3 C-4.69 2.01 -2.38 1.02 0 0 Z " fill="#44433C" transform="translate(321,184)"/>
<path d="M0 0 C0 0.33 0 0.66 0 1 C-3.3 1.33 -6.6 1.66 -10 2 C-10 1.34 -10 0.68 -10 0 C-6.30581799 -1.231394 -3.7943739 -0.64432764 0 0 Z " fill="#DDDBD7" transform="translate(381,161)"/>
<path d="M0 0 C0.33 0.66 0.66 1.32 1 2 C1.66 2.33 2.32 2.66 3 3 C1.68 4.32 0.36 5.64 -1 7 C-1.66 6.67 -2.32 6.34 -3 6 C-2.01 4.02 -1.02 2.04 0 0 Z " fill="#CBCCC4" transform="translate(180,149)"/>
</svg>
